<svg width="766" height="136" viewBox="0 0 766 136" fill="none" xmlns="http://www.w3.org/2000/svg">
<path d="M118.097 35.7483L113.731 51.815H144.68L139.701 70.1466H108.752L100.439 100.738H81.3913L104.034 17.4167H154.627L149.647 35.7483H118.103H118.097Z" fill="#EAEAE0"/>
<path d="M217.794 41.2253L201.618 100.744H183.76L185.278 95.1514C180.123 99.6751 173.547 102.414 165.568 102.414C149.975 102.414 140.837 88.7271 145.658 70.9906C150.479 53.2541 167.056 39.5676 182.649 39.5676C190.622 39.5676 195.716 42.3061 198.412 46.8298L199.93 41.2374H217.788L217.794 41.2253ZM191.848 70.9785C194.277 62.0525 189.845 56.4541 181.629 56.4541C173.414 56.4541 165.945 62.0464 163.516 70.9785C161.087 79.9044 165.52 85.5028 173.735 85.5028C181.951 85.5028 189.419 79.9105 191.848 70.9785Z" fill="#EAEAE0"/>
<path d="M263.013 82.8858C259.291 96.5722 245.805 102.407 232.95 102.407C221.049 102.407 213.228 97.8838 211.206 88.2413L229.076 79.4308C229.392 83.9545 232.052 86.4562 237.286 86.4562C241.573 86.4562 244.068 85.1446 244.718 82.7643C246.497 76.2187 216.276 79.6676 221.869 59.0772C225.397 46.1012 238.124 39.5555 250.505 39.5555C260.147 39.5555 267.555 43.8424 270.257 52.2947L252.788 60.5102C251.962 57.4134 250.165 55.2761 246.236 55.2761C243.139 55.2761 240.911 56.4662 240.334 58.6096C238.488 65.3921 269 60.8745 263.019 82.8919L263.013 82.8858Z" fill="#EAEAE0"/>
<path d="M297.29 58.3607L291.564 79.4308C290.173 84.5496 294.448 85.0232 302.433 84.5496L298.031 100.738C274.052 103.118 269.176 96.0926 273.706 79.4308L279.432 58.3607H269.911L274.568 41.2193H284.089L287.162 29.9131L306.471 24.5575L301.941 41.2193H314.201L309.543 58.3607H297.284H297.29Z" fill="#EAEAE0"/>
<path d="M360.16 87.6463H329.211L321.487 100.738H300.654L351.623 17.4167H375.905L381.595 100.738H360.761L360.154 87.6463H360.16ZM359.298 69.7883L357.853 39.1972L339.776 69.7883H359.298Z" fill="#EAEAE0"/>
<path d="M459.76 45.9858C455.461 61.8157 439.261 74.5549 422.83 74.5549H410.334L403.217 100.744H384.169L406.812 17.4167H438.356C454.781 17.4167 464.059 30.1559 459.76 45.9858ZM440.712 45.9858C442.364 39.9137 439.34 35.2747 433.505 35.2747H421.008L415.185 56.703H427.682C433.517 56.703 439.061 52.064 440.712 45.9919V45.9858Z" fill="#EAEAE0"/>
<path d="M490.315 17.4167L467.672 100.738H448.624L471.267 17.4167H490.315Z" fill="#EAEAE0"/>
<path d="M62.0454 14.5001L60.5806 16.8048L39.9663 49.2355H56.2944L55.1401 51.4327L25.5894 107.697L22.9409 112.739L22.7622 107.047L21.5542 68.6525H2.35205L2.86768 66.7589L16.7856 15.6066L17.0864 14.5001H62.0454Z" fill="url(#paint0_linear_2_191)" stroke="url(#paint1_linear_2_191)" stroke-width="3"/>
<path d="M524.472 100.408C515.98 100.408 508.915 97.5902 503.279 91.9537C497.642 86.2421 494.824 79.2153 494.824 70.8734C494.824 62.5314 497.642 55.5422 503.279 49.9058C508.915 44.1942 515.98 41.3384 524.472 41.3384C530.033 41.3384 535.031 42.6911 539.465 45.3966C543.899 48.027 547.13 51.5967 549.16 56.1059L543.072 59.6005C541.569 56.2186 539.127 53.5507 535.745 51.5967C532.438 49.5676 528.68 48.553 524.472 48.553C518.234 48.553 512.973 50.7325 508.69 55.0913C504.406 59.375 502.264 64.6357 502.264 70.8734C502.264 77.1111 504.406 82.4093 508.69 86.7682C512.973 91.0519 518.234 93.1938 524.472 93.1938C528.68 93.1938 532.438 92.2168 535.745 90.2628C539.051 88.2337 541.644 85.5282 543.523 82.1463L549.723 85.7536C547.393 90.2628 543.974 93.8325 539.465 96.4629C534.956 99.0932 529.958 100.408 524.472 100.408ZM557.023 99.0557V16.7634H564.463V99.0557H557.023ZM624.103 91.9537C618.392 97.5902 611.402 100.408 603.136 100.408C594.869 100.408 587.842 97.5902 582.055 91.9537C576.344 86.2421 573.488 79.2153 573.488 70.8734C573.488 62.5314 576.344 55.5422 582.055 49.9058C587.842 44.1942 594.869 41.3384 603.136 41.3384C611.402 41.3384 618.392 44.1942 624.103 49.9058C629.89 55.5422 632.783 62.5314 632.783 70.8734C632.783 79.2153 629.89 86.2421 624.103 91.9537ZM587.354 86.7682C591.637 91.0519 596.898 93.1938 603.136 93.1938C609.373 93.1938 614.634 91.0519 618.918 86.7682C623.201 82.4093 625.343 77.1111 625.343 70.8734C625.343 64.6357 623.201 59.375 618.918 55.0913C614.634 50.7325 609.373 48.553 603.136 48.553C596.898 48.553 591.637 50.7325 587.354 55.0913C583.07 59.375 580.928 64.6357 580.928 70.8734C580.928 77.1111 583.07 82.4093 587.354 86.7682ZM681.533 42.6911H688.973V99.0557H681.533V90.2628C677.324 97.0265 671.011 100.408 662.594 100.408C655.755 100.408 650.344 98.3417 646.361 94.2083C642.453 89.9998 640.499 84.3633 640.499 77.299V42.6911H647.939V77.299C647.939 82.3342 649.254 86.2421 651.885 89.0228C654.59 91.8034 658.385 93.1938 663.27 93.1938C668.681 93.1938 673.078 91.5028 676.46 88.1209C679.842 84.6639 681.533 79.3657 681.533 72.2261V42.6911ZM749.803 20.1453H757.243V99.0557H749.803V88.0082C744.618 96.275 737.027 100.408 727.032 100.408C718.991 100.408 712.114 97.5526 706.402 91.841C700.766 86.1294 697.948 79.1402 697.948 70.8734C697.948 62.6066 700.766 55.6174 706.402 49.9058C712.114 44.1942 718.991 41.3384 727.032 41.3384C737.027 41.3384 744.618 45.4718 749.803 53.7386V20.1453ZM711.813 86.7682C716.097 91.0519 721.358 93.1938 727.596 93.1938C733.833 93.1938 739.094 91.0519 743.378 86.7682C747.661 82.4093 749.803 77.1111 749.803 70.8734C749.803 64.6357 747.661 59.375 743.378 55.0913C739.094 50.7325 733.833 48.553 727.596 48.553C721.358 48.553 716.097 50.7325 711.813 55.0913C707.53 59.375 705.388 64.6357 705.388 70.8734C705.388 77.1111 707.53 82.4093 711.813 86.7682Z" fill="url(#paint2_linear_2_191)"/>
<defs>
<linearGradient id="paint0_linear_2_191" x1="31.8149" y1="16.0001" x2="31.8149" y2="107" gradientUnits="userSpaceOnUse">
<stop stop-color="#EAEAE0"/>
<stop offset="1" stop-color="#757568"/>
</linearGradient>
<linearGradient id="paint1_linear_2_191" x1="31.8149" y1="16.0001" x2="31.8149" y2="107" gradientUnits="userSpaceOnUse">
<stop stop-color="white"/>
<stop offset="0.337838" stop-color="#5E5E3E"/>
<stop offset="1" stop-color="#868679" stop-opacity="0"/>
</linearGradient>
<linearGradient id="paint2_linear_2_191" x1="627.815" y1="0.0556641" x2="627.815" y2="135.056" gradientUnits="userSpaceOnUse">
<stop stop-color="#EAEAE0"/>
<stop offset="1" stop-color="#757568"/>
</linearGradient>
</defs>
</svg>
