<svg width="985" height="1086" viewBox="0 0 985 1086" fill="none" xmlns="http://www.w3.org/2000/svg">
<path d="M383.954 85.2183C385.361 91.5767 384.229 91.7885 388.159 94.7098L393.285 93.2612C398.46 97.8817 398.169 100.032 403.49 100.894C406.918 96.6466 403.376 81.4514 403.441 74.8085C403.619 56.7422 404.023 38.6356 405.285 20.6048C405.77 12.8796 410.686 9.0301 412.303 0C414.438 17.5947 414.583 35.6406 418.481 52.9576C420.696 62.7481 420.842 62.6689 417.268 72.668C417.898 74.1651 422.475 82.5912 422.507 81.6487C422.329 86.3354 415.311 97.2932 417.3 100.426C431.887 100.604 444.873 94.3266 455.853 98.572C460.284 100.284 462.225 102.484 465.524 101.217L466.624 97.678C480.661 109.05 476.229 104.146 493.226 102.53C519.666 100.014 538.733 91.6688 563.524 83.3931C564.155 79.1202 559.659 74.178 559.869 72.854C562.44 55.562 575.41 38.3579 593.522 51.7919C600.25 64.0981 589.14 75.1933 582.04 85.3153C591.565 90.3238 596.191 88.8655 595.253 101.754C600.137 106.507 616.001 109.297 623.407 111.214C625.283 138.796 624.491 172.693 624.507 200.895L624.523 347.773L624.798 801.753C624.814 831.477 624.847 885.766 625.202 917.938C625.914 918.714 626.609 919.492 627.305 920.269C633.046 919.571 630.992 920.628 634.986 916.171C637.93 906.545 635.811 796.671 635.795 777.447L635.407 135.773C635.423 128.833 634.081 117.958 638.819 115.408C652.403 115.956 680.946 126.077 694.433 130.459L695.678 815.076L722.976 815.635C756.888 848.502 896.578 830.675 943.347 847.823C949.427 850.054 975.011 850.798 982.789 851.032C986.412 880.315 984.487 930.217 984.503 961.509C981.302 966.023 977.323 971.324 974.315 975.868C965.259 977.59 955.281 979.262 946.355 981.244L945.368 1001.33C907.09 1027.38 847.045 1029.23 802.864 1039.05C745.374 1051.82 688.304 1079.77 629.148 1085.58C608.497 1087.6 552.026 1081.8 527.865 1080.19C479.626 1077.2 431.483 1072.88 383.485 1067.22C296.353 1056.25 209.042 1041.59 121.715 1030.61C83.5178 1025.81 53.0828 1025.59 16.5673 1022.57L16.3894 983.15C10.9881 982.028 4.82668 981.616 1.41447 977.852C-1.30236 964.673 0.83237 909.074 0.282535 890.938C19.8825 885.221 15.3545 886.431 25.9793 874.925C30.572 869.949 65.341 873.572 73.8472 864.164C75.0277 859.853 75.0924 856.136 79.4749 854.141C91.3287 848.744 116.961 845.962 129.898 845.176C138.534 838.852 147.347 831.876 156.986 827.315L154.22 156.672C168.969 154.7 292.439 139.168 298.859 134.124C299.425 130.833 299.684 130.076 299.49 126.678L300.541 126.54C302.514 129.337 303.694 130.981 306.023 133.596C312.605 136.071 320.4 133.9 327.58 132.732C339.013 123.648 342.086 112.165 351.643 109.029L353.875 109.258C368.058 111.295 369.626 109.968 377.987 101.952C385.393 97.1122 383.906 93.5393 383.954 85.2183Z" fill="#161616"/>
</svg>
