<svg width="935" height="781" viewBox="0 0 935 781" fill="none" xmlns="http://www.w3.org/2000/svg">
<path d="M667.163 0L683.058 0.239467C684.117 37.7856 684.946 75.3392 685.546 112.896C729.587 95.8566 773.504 78.5076 817.299 60.8518L822.041 714.294L858.178 714.644C876.975 730.91 913.301 748.591 933.033 764.978C935.786 769.644 934.907 774.299 934.711 779.938C731.31 782.217 524.139 780.112 320.347 780.155L110.55 780.204C82.6062 780.207 27.8783 781.78 1.70693 779.425L0 776.361C0.398283 756.78 61.5137 730.739 75.4686 715.951L76.7413 714.583L112.163 714.659C115.336 622.014 114.454 526.499 114.723 433.598L116.975 14.0355C168.405 41.5616 222.57 65.2788 273.435 94.1145C279.009 97.2754 287.111 100.659 293.385 101.86C295.569 98.2003 295.101 90.4193 295.303 85.458L312.415 94.6264C312.387 81.42 311.635 24.5987 313.901 14.3902C319.887 25.2408 314.619 75.5398 316.403 94.6054L316.537 95.9674C316.043 102.803 314.673 105.848 317.306 111.318L323.322 114.443C332.097 115.941 354.594 127.144 363.241 131.258C362.897 149.511 362.671 167.766 362.563 186.02C427.941 166.38 527.555 171.892 591.429 196.253L591.242 94.0876C616.801 63.7223 642.391 31.1016 667.163 0ZM444.817 255.793C444.549 254.035 444.62 250.574 442.859 249.458C427.847 239.927 359.26 255.171 353.648 270.73C357.234 270.71 365.838 265.047 370.872 262.655C386.547 255.207 423.938 246.472 440.332 252.275C442.229 255.157 442.055 255.364 442.583 258.661C442.482 259.421 442.363 260.178 442.23 260.934C441.187 266.677 440.116 270.309 435.329 273.537C428.224 274.952 420.317 270.665 413.067 267.903C398.191 271.27 378.114 276.736 383.666 297.651C388.964 317.604 409.289 328.768 426.193 338.113C431.18 350.845 442.841 371.842 445.878 382.009C450.401 397.149 448.927 421.193 454.746 439.386C459.549 454.403 475.291 481.598 474.9 495.047C474.175 519.929 444.412 547.717 436.311 572.33C430.912 588.731 434.383 596.953 432.555 613.132C431.866 619.234 426.721 618.777 427.055 629.867C427.386 640.794 431.713 651.944 431.977 661.415C432.141 667.325 427.715 676.33 428.516 685.166C438.794 691.5 439.027 702.185 442.745 715.392C472.076 713.477 518.372 715.193 548.858 715.387C552.274 691.677 546.972 655.03 542.031 630.997C540.512 624.827 530.628 610.13 530.613 604.86C530.498 566.001 514.926 546.823 494.182 515.823C481.6 497.02 474.828 443.525 488.274 423.33C496.867 410.421 508.028 404.358 512.222 387.428L512.641 385.695C551.822 370.392 582.321 322.494 558.331 282.902C542.587 256.919 515.125 246.797 487.342 239.962C490.559 247.083 496.176 258.481 497.886 265.705C495.754 263.706 488.612 256.898 486.43 257.022C472.738 257.802 458.301 259.939 444.817 255.793ZM367.569 481.398C371.487 498.097 374.067 499.637 385.941 512.288C388.133 496.747 386.18 491.639 401.692 487.851C402.986 477.086 386.003 444.697 380.748 431.953C372.874 412.864 377.298 382.724 372.068 367.001C364.129 343.128 345.082 319.619 348.176 289.821C348.414 287.52 349.674 275.133 349.58 273.189C342.267 277.818 331.87 284.901 324.154 288.056C332.783 322.497 340.443 357.172 347.126 392.043C349.351 403.255 354.449 426.317 355.057 436.858C349.26 443.811 351.884 435.408 345.62 443.451L346.145 445.386L346.4 440.782C344.726 446.347 348.556 450.518 351.66 455.21L343.231 463.501C350.363 466.123 354.669 464.478 357.294 457.235C358.303 458.393 361.823 464.119 361.244 463.898C365.377 465.48 374.194 465.152 375.361 469.543L367.569 481.398ZM339.082 708.221C346.975 678.604 354.037 688.1 347.53 660.28C348.52 657.732 352.85 646.809 352.338 645.283C347.469 630.782 342.803 625.271 358.064 610.611C355.867 593.554 353.123 581.168 359.392 564.885C357.46 560.387 351.759 560.423 345.965 556.909C345.72 578.145 346.189 601.819 343.133 622.773C341.896 631.259 335.085 647.951 334.209 655.762C331.244 682.187 340.849 691.756 319.574 712.669L318.638 713.573C324.675 713.86 333.405 715.303 337.867 712.233L339.082 708.221ZM231.628 711.597L231.997 576.981C232.01 568.236 232.644 526.382 230.989 520.689L224.959 518.944C224.546 536.869 222.666 706.098 224.509 710.979C227.065 711.317 229.02 711.646 231.628 711.597ZM366.603 523.304C367.272 528.319 367.181 532.803 370.379 536.395C375.23 535.7 378.62 530.332 382.747 525.936C368.904 511.598 366.335 495.9 357.667 489.299C353.253 498 337.822 529.639 350.627 536.724C361.4 534.151 360.253 523.148 366.237 520.807L366.603 523.304ZM230.137 194.859C231.781 179.182 233.594 110.983 229.471 91.9055C229.285 91.0404 223.86 88.6099 222.254 87.878C223.812 117.027 219.604 170.488 223.699 194.527C226.782 194.976 227.024 195.247 230.137 194.859ZM227.702 405.464C230.601 403.076 232.133 402.416 231.913 397.386C231.251 382.172 234.765 331.722 229.258 321.624L224.706 319.722C224.296 326.285 223.288 400.567 224.492 403.407L227.702 405.464ZM188.338 557.188C200.603 543.703 196.562 530.467 178.172 528.063C165.825 541.946 166.075 558.473 188.338 557.188ZM230.908 502.188C230.299 486.024 233.861 427.82 230.287 418.701L225.494 417.129C224.706 428.659 222.249 493.856 226.072 500.571L230.908 502.188ZM307.87 498.349C308.518 508.78 308.85 516.648 310.968 526.987L311.831 526.601L314.321 499.387C321.952 497.798 318.734 495.965 325.424 490.782L318.059 486.151C319.03 481.857 320.046 480.932 322.629 477.218L319.391 475.663C315.715 477.876 315.438 478.595 312.76 482.086C306.474 474.495 312.502 438.678 308.819 435.215C307.028 443.253 306.461 474.313 304.611 486.997C297.552 490.845 296.938 485.434 294.716 489.806C298.443 492.389 299.419 492.843 303.649 494.507C303.759 499.137 303.581 501.387 303.035 505.995C304.637 503.458 306.242 500.863 307.87 498.349ZM640.792 325.117L641.934 325.424L645.194 178.877C645.079 164.453 647.525 58.541 645.447 51.8764C641.053 74.8573 642.032 141.419 642.354 167.773C636.887 176.962 638.7 172.93 639.533 182.352C643.7 229.604 637.869 277.491 640.792 325.117ZM607.017 167.574C607.681 157.602 609.666 106.954 605.823 100.644L603.726 99.9305C602.843 109.5 601.564 161.04 605.414 167.15L607.017 167.574ZM336.453 540.614C336.383 533.146 336.38 529.301 337.236 521.816C338.546 510.383 354.614 484.833 348.051 477.436C343.312 494.595 335.676 507.779 331.796 524.658L336.453 540.614ZM150.01 119.544C152.74 117.719 153.677 114.143 152.19 111.214C150.705 108.286 147.266 106.927 144.18 108.05C141.823 108.907 140.172 111.043 139.935 113.538C139.698 116.033 140.92 118.441 143.073 119.725C145.226 121.008 147.926 120.939 150.01 119.544ZM791.192 448.563C793.566 448.02 795.455 446.219 796.109 443.874C796.765 441.527 796.082 439.011 794.333 437.316C792.583 435.622 790.045 435.02 787.719 435.747C784.313 436.814 782.359 440.381 783.292 443.825C784.225 447.268 787.712 449.361 791.192 448.563ZM149.932 179.263C152.643 177.429 153.565 173.867 152.084 170.952C150.605 168.035 147.183 166.676 144.104 167.779C141.738 168.628 140.074 170.766 139.833 173.267C139.594 175.768 140.818 178.184 142.981 179.466C145.143 180.75 147.851 180.67 149.932 179.263ZM718.95 303.515C721.928 301.777 723.019 298.01 721.431 294.951C719.841 291.892 716.13 290.617 712.995 292.054C710.825 293.048 709.38 295.155 709.235 297.536C709.089 299.917 710.267 302.184 712.299 303.436C714.332 304.685 716.888 304.717 718.95 303.515ZM751.935 445.986C754.767 444.152 755.715 440.454 754.115 437.486C752.516 434.517 748.905 433.273 745.816 434.626C743.582 435.605 742.088 437.756 741.95 440.189C741.812 442.623 743.053 444.928 745.163 446.152C747.271 447.376 749.89 447.312 751.935 445.986ZM184.589 236.276C187.79 235.506 189.9 232.456 189.491 229.191C189.081 225.926 186.283 223.491 182.991 223.535C180.51 223.569 178.267 225.018 177.219 227.267C176.171 229.515 176.504 232.164 178.074 234.085C179.645 236.003 182.177 236.855 184.589 236.276ZM184.707 444.744C187.852 443.452 189.433 439.921 188.301 436.717C187.169 433.511 183.722 431.756 180.463 432.724C178.203 433.396 176.498 435.258 176.026 437.566C175.556 439.875 176.396 442.256 178.214 443.757C180.03 445.26 182.526 445.639 184.707 444.744ZM152.116 69.3018C153.417 61.9428 154.239 63.1731 152.063 56.748C147.955 53.4389 146.644 53.3177 141.47 51.9962C139.751 57.1087 138.981 57.9812 140.585 62.7749C143.864 66.9236 147.071 67.4654 152.116 69.3018ZM622.82 128.608C620.908 136.474 620.511 139.754 625.084 146.961C625.593 141.293 626.734 135.476 624.918 130.288L622.82 128.608ZM705.537 491.707C706.459 498.85 705.214 497.841 709.418 502.22C713.871 503.811 717.927 503.828 722.624 503.018C722.346 496.222 723.452 497.397 720.004 493.057C714.371 491.4 711.344 491.719 705.537 491.707ZM746.581 187.639C744.217 188.166 742.359 189.992 741.791 192.346C741.225 194.701 742.049 197.171 743.914 198.716C745.781 200.259 748.364 200.606 750.571 199.609C753.536 198.271 755.006 194.91 753.979 191.825C752.951 188.741 749.757 186.933 746.581 187.639ZM143.59 297.491C146.752 295.741 147.898 291.763 146.149 288.603C144.401 285.443 140.422 284.297 137.259 286.043C134.096 287.79 132.949 291.771 134.697 294.932C136.446 298.094 140.428 299.239 143.59 297.491ZM184.676 500.543C187.606 499.368 189.235 496.225 188.502 493.154C187.768 490.084 184.896 488.014 181.75 488.291C179.26 488.51 177.128 490.164 176.299 492.521C175.469 494.878 176.095 497.502 177.901 499.23C179.705 500.959 182.355 501.472 184.676 500.543ZM660.291 116.769C660.05 117.624 662.054 141.812 662.448 144.087C662.885 138.545 664.789 120.324 661.917 116.299L660.291 116.769ZM783.238 139.328C781.22 140.645 780.152 143.014 780.499 145.397C780.848 147.779 782.549 149.745 784.86 150.43C787.17 151.115 789.667 150.397 791.26 148.591C793.306 146.269 793.321 142.796 791.295 140.456C789.271 138.119 785.828 137.637 783.238 139.328ZM745.801 137.858C742.685 139.229 741.254 142.851 742.594 145.979C743.932 149.107 747.541 150.574 750.684 149.267C752.745 148.411 754.189 146.513 754.461 144.298C754.735 142.083 753.798 139.892 752.006 138.56C750.214 137.227 747.845 136.96 745.801 137.858ZM789.729 199.985C792.378 197.818 792.797 193.928 790.669 191.248C788.542 188.567 784.656 188.091 781.944 190.178C780.154 191.556 779.243 193.791 779.564 196.027C779.884 198.263 781.384 200.151 783.49 200.971C785.595 201.792 787.98 201.414 789.729 199.985ZM191.158 128.844C196.042 125.114 196.626 125.943 198.225 120.762C196.906 116.786 193.732 114.774 190.02 112.588C185.249 116.04 184.108 115.642 182.382 120.521C184.619 124.689 187.299 126.068 191.158 128.844ZM143.052 444C145.643 439.263 146.332 438.423 145.575 433.167C142.476 428.87 143.892 429.628 139.55 427.69C135.738 431.588 134.69 432.021 134.055 437.091C136.503 442.395 137.143 442.563 143.052 444ZM707.158 136.615C705.216 138.092 704.264 140.53 704.692 142.93C705.121 145.331 706.856 147.29 709.189 148.005C711.52 148.721 714.058 148.07 715.759 146.322C718.132 143.882 718.222 140.027 715.966 137.48C713.708 134.932 709.867 134.555 707.158 136.615ZM708.003 187.303C705.191 189.269 704.371 193.069 706.122 196.019C707.876 198.969 711.605 200.069 714.679 198.542C716.882 197.448 718.286 195.214 718.318 192.756C718.349 190.297 717.002 188.028 714.828 186.879C712.652 185.73 710.018 185.893 708.003 187.303ZM784.08 392.128C780.55 393.229 778.598 396.996 779.733 400.514C780.866 404.031 784.653 405.948 788.161 404.782C791.624 403.631 793.513 399.906 792.393 396.434C791.273 392.961 787.562 391.041 784.08 392.128ZM181.202 392.224C178.88 393.222 177.312 395.432 177.14 397.953C176.968 400.472 178.22 402.877 180.383 404.18C182.547 405.485 185.258 405.469 187.407 404.141C190.408 402.286 191.469 398.432 189.84 395.302C188.211 392.174 184.444 390.832 181.202 392.224ZM707.031 392.623C704.406 395.359 704.511 399.705 707.263 402.311C710.015 404.917 714.365 404.786 716.954 402.019C719.522 399.276 719.391 394.976 716.663 392.393C713.935 389.81 709.632 389.913 707.031 392.623ZM139.43 392.168C137.22 393.25 135.762 395.437 135.614 397.893C135.466 400.349 136.651 402.696 138.716 404.035C140.781 405.373 143.407 405.499 145.59 404.363C148.91 402.637 150.223 398.563 148.537 395.224C146.851 391.887 142.792 390.523 139.43 392.168ZM722.129 448.979C722.464 438.034 718.032 433.85 706.934 429.349C706.251 435.635 704.917 440.311 707.873 445.6C711.355 448.651 717.652 449.51 722.129 448.979ZM181.776 170.965C179.732 172.772 178.83 175.545 179.42 178.206C180.01 180.869 182 183 184.615 183.775C187.23 184.549 190.06 183.844 192.005 181.933C194.907 179.083 195.007 174.444 192.234 171.47C189.461 168.496 184.823 168.273 181.776 170.965ZM182.196 278.569C179.643 284.502 176.346 290.069 177.071 296.183C180.477 301.361 178.645 299.606 185.122 302.443C190.099 294.92 188.797 284.292 182.196 278.569ZM223.461 213.44C223.122 223.936 221.273 238.295 226.716 246.938L229.983 248.705C230.591 238.738 233.23 222.197 227.56 214.794L223.461 213.44Z" fill="#161616"/>
</svg>
