<svg width="1232" height="565" viewBox="0 0 1232 565" fill="none" xmlns="http://www.w3.org/2000/svg">
<path d="M617.245 0L634.98 0.0681439L636.322 12.1754C641.292 12.3578 656.891 13.5631 657.91 9.17871C659.883 0.699384 663.943 -1.07509 675.695 1.53487C677.143 7.68032 676.102 7.18895 679.965 11.3033C687.442 14.3864 694.08 12.871 701.859 11.4323C703.835 7.08681 700.961 3.34945 706.22 1.18584C709.935 -0.342923 715.305 0.16178 718.956 1.74405C721.011 4.46712 720.869 5.56538 721.397 9.07776C726.839 15.0919 735.141 12.781 742.833 12.0987C743.878 5.72099 742.874 5.59336 746.514 1.42545C751.07 -0.464517 756.132 0.22991 761.222 0.384367C761.104 22.2504 760.621 97.0891 761.253 123.653C761.802 124.258 762.35 124.862 762.898 125.467L766.002 126.343C766.622 134.054 763.386 141.627 761.676 148.854C760.932 151.998 761.43 160.733 761.461 164.52C801.936 164.671 1103.47 162.72 1109.36 165.448C1111 169.454 1111.09 167.997 1109.88 171.396C1101.21 176.127 1091.49 170.687 1085.36 178.268C1084.27 191.798 1084.55 255.162 1086.26 267.135C1088.7 269.878 1089.4 269.726 1093.22 270.532L1094.47 269.895C1092.76 267.618 1091.83 267.207 1091.62 264.831C1099.31 267.068 1103.59 272.646 1108.94 278.465L1111.29 276.13C1114.58 278.392 1114.56 280.205 1115.4 284.79C1115.54 285.58 1115.68 286.371 1115.81 287.173C1117.99 287.854 1116.82 287.745 1119.44 286.59C1121.05 290.104 1120.94 290.53 1121.16 294.483C1122.8 292.549 1129.18 281.129 1128.59 281.518C1135.01 277.261 1148.01 270.24 1155.78 272.37L1156.5 273.389L1152.33 276.702C1160.64 276.678 1162.65 275.748 1168.38 282.163L1168.16 283.318H1166.94C1151.53 283.549 1150.24 296.538 1138.57 307.095L1143.26 307.143C1142.33 310.403 1141 310.5 1137.81 312.92L1138.46 313.601C1149.94 309.041 1177.43 300.503 1185.84 314.587C1183.25 316.593 1179.11 316.691 1175.7 317.153L1179.92 319.488L1179.58 321.069C1175.44 320.643 1166.11 318.904 1163.23 321.215C1164.75 322.224 1166.37 322.881 1166.96 324.243C1162.21 324.499 1158.86 324.158 1155.06 326.809L1156.43 327.977C1159.96 327.539 1163.05 327.271 1166.6 327.028C1170.67 326.043 1178.9 324.097 1182.88 324.73C1191.03 326.019 1205.24 334.167 1202.35 343.702C1196.69 339.093 1196.51 339.774 1190.42 339.774C1188.56 339.774 1174.28 340.686 1175.87 341.61C1168.97 337.585 1170.49 341.148 1162.33 341.343L1163.73 342.814C1169.93 343.824 1171.3 344.116 1176.39 347.886C1183.5 346.791 1196.02 366.518 1196.73 372.854C1193.75 370.617 1192.1 369.06 1188.49 367.941L1187.83 368.926C1194.89 373.937 1200.97 388.981 1197.27 397.142C1193.66 397.179 1193.24 394.503 1190.61 393.092C1177.13 385.843 1180.43 394.32 1171.01 379.325C1169.79 382.779 1169.92 386.33 1169.75 390.039C1166.69 391.401 1122.74 355.572 1121.09 355.366C1124.64 364.001 1137.37 373.28 1138.14 386.573C1138.49 392.52 1136.46 406.64 1133.13 410.727L1132 408.136L1130.49 408.039C1127.08 404.305 1125.18 396.57 1123.36 391.377C1121.44 417.003 1122.59 430.636 1124.31 456.261C1144.13 455.848 1164.85 456.164 1184.75 456.225C1184.6 463.656 1183.83 476.256 1185.55 483.042C1188.01 485.122 1187.05 484.501 1191.39 484.161L1193.59 486.058C1195.81 491.215 1195 498.828 1194.85 504.642L1207.86 505.724C1207.88 509.567 1207.26 520.939 1209.72 523.517C1215.09 522.167 1215.6 521.693 1219.7 525.536C1220.39 531.666 1220.06 535.521 1220.29 541.407C1220.57 548.644 1224.54 541.541 1230.66 547.318C1232.79 551.988 1231.82 558.823 1231.51 564.175C1094.19 565.974 952.461 564.272 814.942 564.26L0.169872 564.211C0.458574 558.069 -0.965443 552.621 1.36853 547.172C5.70515 543.584 4.94136 544.594 11.0138 543.402C11.0882 535.12 9.84686 530.632 14.8681 524.989C18.5286 524.247 19.2254 524.368 21.9005 522.009C24.0201 517.752 23.361 511.404 23.3001 506.356L35.6778 504.058L35.8483 483.978L50.8925 483.881C50.8096 477.192 50.0714 464.069 51.6416 458.098C54.0511 448.94 59.8763 447.298 53.3361 436.449L52.6295 435.306L53.5821 433.275L56.3485 432.594C68.753 437.885 100.849 436.328 116.368 436.425C118.126 420.943 117.614 406.385 116.498 390.891C114.406 398.285 115.039 410.909 109.496 414.74C93.9261 407.48 106.432 388.166 109.711 377.209C104.368 383.302 97.9886 386.5 91.7541 391.475C88.5711 394.016 89.0498 399.185 85.2394 400.535L84.6742 396.96C79.1462 395.719 63.3602 406.568 59.8349 411.53C55.6518 389.602 60.7729 380.261 77.961 368.221C75.6441 365.703 75.8256 366.397 72.0213 365.217C65.3738 369.255 62.8437 363.94 52.7075 369.255C52.5711 366.482 56.5167 359.282 57.9553 356.314C68.8651 347.874 82.2952 353.043 95.0443 355.268C90.8953 353.128 86.5952 350.927 82.3025 349.066C78.5944 347.46 75.2433 347.837 71.8386 345.818C73.6341 344.177 73.1883 344.967 74.0349 342.814L68.3961 341.173C79.9198 334.046 95.707 341.963 99.2555 336.612L97.6329 332.854L98.9656 331.176C95.8885 324.45 84.4696 321.653 83.5901 315.937C86.728 314.234 89.3276 312.458 92.2877 310.488C105.674 313.127 104.439 314.635 114.449 323.659C115.987 325.046 115.083 324.766 117.037 324.681C121.042 313.042 126.775 307.983 138.959 305.611C148.368 303.787 146.473 307.861 153.958 309.114C153.133 310.549 152.804 311.181 152.167 312.714L155.059 314.38C150.881 315.012 146.656 315.024 143.83 317.773L143.889 321.324C141.894 324.815 140.726 324.426 136.452 326.323L137.166 328.561C142.862 328.853 163.428 307.703 181.048 330.969L180.701 332.939L175.267 335.906C175.277 338.801 176.012 340.321 176.843 343.155C180.841 339.385 193.499 330.324 195.051 327.284L193.901 323.817C188.868 319.938 186.587 319.342 187.542 312.495C190.01 311.047 189.988 311.096 191.936 309.016C193.281 300.77 194.319 257.124 191.848 250.034C189.1 247.114 186.542 247.311 182.426 246.749L177.58 243.636C217.466 238.292 263.061 224.279 299.623 207.403C299.716 198.729 300.304 182.489 298.952 174.637C292.418 168.012 276.426 175.36 272.815 167.984C288.147 163.059 383.429 164.514 406.234 164.526L617.496 164.291C617.725 159.301 617.878 154.509 617.576 149.536C617.225 143.768 610.405 130.325 614.069 125.253C620.164 116.813 617.495 100.081 617.759 89.0403C618.467 59.4441 616.335 29.6217 617.245 0ZM657.003 441.326C665.113 441.217 673.734 441.229 681.801 440.962L681.642 380.65H694.902C694.981 400.827 694.906 420.992 694.677 441.156L721.879 440.913C722.21 409.572 733.869 347.837 688.202 347.898C687.106 347.91 686.011 347.947 684.917 348.032C644.4 358.978 657.99 406.409 657.003 441.326ZM833.245 438.128L879.454 438.371L891.441 438.152C891.359 421.065 891.946 386.743 890.221 370.799C875.704 361.252 864.847 362.31 847.435 363.806C843.939 365.351 835.352 368.987 834.814 372.429C831.837 391.426 833.965 418.778 833.245 438.128ZM310.007 438.177L344.077 438.164L367.435 438.322C367.524 406.324 378.696 360.133 334.653 361.361C334.102 361.374 333.55 361.398 332.998 361.422C325.321 363.502 317.733 365.679 313.839 373.39C306.537 387.838 310.439 420.213 310.007 438.177ZM654.515 267.566C677.314 267.537 700.546 267.743 723.307 267.426L723.533 208.105L654.713 208.054C654.679 227.435 655.022 248.309 654.515 267.566ZM397.966 438.031L457.428 438.103C462.833 429.773 456.125 401.678 451.278 393.189C449.866 393.931 449.124 394.369 447.799 395.257C446.031 389.833 448.704 385.564 451.05 380.213C449.118 379.969 448.885 380.2 447.295 379.045L450.112 374.533L449.14 373.268C446.207 373.463 444.74 374.727 442.227 376.272C441.919 371.176 447.175 369.109 442.02 364.511C437.474 360.461 423.056 362.225 417.345 362.699C401.873 368.561 398.134 377.05 397.724 393.214C397.347 408.088 398.4 423.169 397.966 438.031ZM222.748 438.103H278.628C278.64 419.338 279.269 396.035 278.447 377.634C269.354 362.128 261.378 359.963 243.974 361.422C239.022 362.845 233.837 363.915 229.652 366.834C228.211 372.696 232.358 372.38 231.225 377.853C227.724 377.853 224.905 377.16 222.72 378.972C223.612 384.007 226.245 384.567 230.625 387.4C228.409 388.702 227.353 388.641 224.837 388.945C225.927 393.785 229.718 393.919 230.235 399.003L229.259 400L223.223 397.093L222.272 398.261C223.225 406.154 228.777 407.613 228.827 414.132L227.535 414.728L223.819 411.177L222.241 411.821C221.491 416.674 220.645 434.272 222.748 438.103ZM913.712 371.298L913.318 438.493C933.929 438.31 954.541 438.262 975.152 438.359C975.258 424.567 975.055 409.194 975.895 395.537C976.531 387.716 976.726 382.195 976.636 374.35C975.442 379.422 971.813 401.909 970.654 404.342L968.705 404.22C961.771 394.807 961.818 394.454 963.08 383.034L962.106 382.462C961.102 383.922 960.11 385.175 958.762 386.33C959.296 383.083 959.775 380.504 960.557 377.306C958.009 379.446 957.306 384.676 951.86 390.307C945.917 381.623 954.813 370.009 960.788 363.393C951.604 363.514 939.328 363.368 930.408 364.049C922.722 365.557 920.417 367.138 913.712 371.298ZM695.841 110.47C713.841 106.961 725.607 89.5779 722.154 71.5952C718.703 53.6125 701.334 41.8044 683.31 45.1867C665.197 48.5872 653.299 66.0335 656.767 84.105C660.236 102.178 677.752 113.997 695.841 110.47ZM762.124 267.54L817.089 267.562L817.141 204.549L762.299 204.529L762.124 267.54ZM561.597 267.516L616.097 267.549L616.314 204.851C598.211 204.169 580.195 204.477 562.085 204.642C561.991 225.157 562.254 247.124 561.597 267.516ZM543.872 203.706C538.114 200.221 537.075 198.373 533.078 192.883L533.489 191.501C541.145 188.91 539.711 190.575 544.255 184.936L544.702 182.117C541.595 180.366 517.541 181.257 512.263 181.182L512.261 217.023C521.367 217.128 537.908 219.486 543.387 214.339C544.736 210.715 544.133 207.629 543.872 203.706ZM914.096 186.629C908.708 187.029 909.275 186.065 906.671 188.996C903.943 201.62 906.382 209.27 905.481 222.096L931.835 222.204L936.17 221.83C939.342 216.409 937.2 195.425 937.681 186.941C929.909 186.818 921.841 186.572 914.096 186.629ZM115.933 439.745C97.8753 439.867 79.8175 439.794 61.7608 439.514L61.7316 455.969C78.6054 455.969 97.0141 456.334 113.764 455.69L115.933 439.745ZM533.652 437.629C535.433 420.505 529.029 407.516 519.414 393.092C518.795 393.712 518.291 394.211 517.511 394.612C517.025 391.085 517.022 390.38 517.249 386.817C515.572 385.235 516.205 385.527 514.187 384.639C510.758 402.724 513.612 420.432 511.364 438.322C514.629 438.262 531.564 438.116 533.652 437.629ZM322.562 181.026L322.416 216.488C331.155 216.567 346.532 217.082 354.613 216.228C354.61 206.115 354.162 191.021 354.881 181.303L322.562 181.026ZM1029.74 274.744C1028.81 279.256 1027.38 282.357 1028.6 286.249C1032.76 287.137 1035.55 285.629 1039.63 284.036C1047.26 278.453 1047.03 269.107 1058.4 270.092C1060.09 267.531 1059.66 257.383 1059.74 253.454C1047.38 252.72 1039.79 252.165 1027.64 254.7C1027.59 261.374 1027.71 266.976 1028.09 273.636L1029.74 274.744ZM1111.79 374.618C1105.56 380.48 1108.16 409.267 1102.17 416.832C1098.21 412.186 1093.08 407.005 1088.84 402.481C1088.33 394.892 1086.97 384.445 1091.11 377.731L1090.06 377.099C1088.74 378.011 1085.86 379.458 1085.86 381.392C1085.88 398.699 1083.04 422.475 1086.67 438.943C1087.11 440.949 1090.39 441.253 1092.24 441.74C1096.05 445.802 1094.37 447.286 1096.93 453.148C1101.77 454.279 1105.88 455.325 1109.98 452.832C1114.47 442.543 1114.87 378.011 1114.14 365.278C1114.63 361.921 1115.59 358.662 1114.08 355.767C1110.09 359.063 1108.6 368.476 1109.94 373.256L1111.79 374.618ZM874.493 221.808C874.37 210.041 874.323 198.274 874.356 186.508C863.582 186.404 852.627 186.162 841.869 186.52C841.868 197.637 842.158 210.655 841.558 221.595L874.493 221.808ZM1084.62 286.346C1085.25 300.637 1088.05 295.906 1097.73 307.788L1099.81 308.214L1099.89 306.645L1098.86 305.939C1097.73 301.914 1090.91 293.327 1088.66 288.499L1084.62 286.346ZM124.794 439.235L125.492 455.678L171.112 455.994L171.268 439.903L124.794 439.235ZM180.799 386.634C184.116 395.306 198.108 413.232 183.47 421.66C182.036 419.106 180.699 416.492 179.456 413.84L178.243 414.546C177.455 420.919 177.042 429.979 179.226 436.036L184.288 436.717L183.963 437.593L179.808 438.724C178.594 440.949 178.75 440.013 178.739 442.397C178.763 448.161 177.788 450.934 180.392 455.276C184.154 456.14 184.314 456.128 188.176 455.568C190.646 451.53 187.744 445.243 188.865 440.39C190.127 439.855 191.389 439.332 192.651 438.809C194.897 429.517 193.148 403.418 191.842 395.172C186.658 391.888 185.236 390.842 180.799 386.634ZM510.197 361.678C506.251 363.697 504.568 364.232 500.19 364.925C491.757 372.855 504.642 418.328 504.355 432.922L505.05 435.379L506.626 435.574C510.245 423.035 509.279 379.021 510.518 362.067L510.197 361.678ZM991.813 186.662L964.411 186.865C964.303 194.286 963.473 215.37 965.135 221.508C967.468 222.453 966.576 222.368 968.988 222.363L996.149 222.215C996.291 215.566 997.344 192.278 994.976 187.273L991.813 186.662ZM384.819 216.596L418.65 216.543C418.48 204.737 418.483 192.929 418.658 181.125C407.962 181.108 395.428 181.418 384.892 181.032C384.976 191.369 385.536 206.654 384.819 216.596ZM488.26 372.125C486.854 373.621 483.493 377.379 483.235 379.264C482.042 388.008 479.41 430.928 481.406 437.349C482.795 437.118 482.878 437.337 483.854 436.62C485.406 422.366 484.77 409.936 485.724 395.962C497.195 380.723 490.114 384.871 488.26 372.125ZM170.341 387.364C172.58 394.406 168.28 416.03 165.474 422.755L163.625 423.704C158.398 420.59 156.019 413.39 155.454 407.613C151.023 404.67 147.913 404.755 142.569 404.597C141.872 403.491 140.86 401.995 140.305 400.851C137.071 405.461 140.574 406.531 135.606 409.523C135.381 409.657 132.312 415.92 130.043 418.219L128.822 417.732L128.887 416.297C128.952 414.631 128.956 414.424 128.453 412.77L126.591 412.381L126.155 406.896L124.881 405.862C122.627 412.113 123.64 428.483 124.019 435.781C139.933 436.559 155.557 436.06 171.433 436.304C172.19 428.496 174.596 392.156 171.857 387.011L170.341 387.364ZM452.548 181.167C452.49 191.861 452.809 206.255 452.047 216.646L484.582 216.662L484.551 181.424C473.886 181.16 463.216 181.074 452.548 181.167Z" fill="#161616"/>
</svg>
