<svg width="1080" height="897" viewBox="0 0 1080 897" fill="none" xmlns="http://www.w3.org/2000/svg">
<path d="M1079.17 683.624C1074.52 677.612 1069.8 672.178 1065.04 667.223C1040.53 645.685 990.107 612.652 924.536 629.631L969.99 617.095L963.201 599.455L974.383 615.873L1010.27 605.979L998.564 587.861L1014.34 604.856L1034.4 599.323C1030.82 593.03 1026.79 584.475 1026.79 584.475L1037.81 598.382L1079.58 586.87C1020.75 562.574 976.976 574.433 947.593 592.915L973.211 571.542L957.602 556.248L976.894 567.958L1004.63 543.613L984.971 531.027L1008.06 540.656L1060.19 496.441C959.535 499.216 929.805 568.206 921.365 600.76L921.183 600.578C928.302 575.985 931.292 541.961 913.586 505.922L944.422 498.522C928.649 491.09 913.883 486.382 900.124 483.806C893.006 474.077 884.169 464.316 873.335 454.67L877.844 481.411C877.844 481.411 877.744 481.411 877.695 481.411L877.877 481.526C877.877 481.526 825.139 482.204 786.589 519.399L814.354 489.537L798.018 476.456L817.756 485.87L842.878 458.849L822.728 448.625L845.851 455.645L859.791 440.664C853.482 437.031 845.422 431.481 845.422 431.481L862.219 438.055L890.958 407.152C795.425 420.811 772.269 489.141 766.67 522.686L766.538 522.405L778.182 464.911L756.446 462.731L778.826 459.791L785.235 423.454L762.012 425.931L786.06 418.994L799.076 351.904C781.205 367.066 768.569 382.608 759.882 397.936C751.64 370.006 726.221 314.229 651.995 293.303L693.452 303.791L696.375 284.615L697.977 304.93L734.033 314.048L732.844 292.08L738.212 315.105L803.915 331.72C799.274 325.708 794.566 320.274 789.793 315.319C765.282 293.782 714.857 260.748 649.286 277.728L694.74 265.191L687.952 247.552L699.133 263.969L735.024 254.076L723.314 235.957L739.087 252.953L759.155 247.419C755.571 241.127 751.541 232.571 751.541 232.571L762.557 246.478L804.328 234.966C745.496 210.67 701.727 222.529 672.343 241.011L697.961 219.638L682.352 204.344L701.644 216.054L729.375 191.709L709.72 179.123L732.811 188.752L784.937 144.537C684.285 147.312 654.555 216.302 646.115 248.856L645.933 248.675C653.052 224.081 656.041 190.057 638.336 154.018L669.172 146.618C653.399 139.186 638.633 134.479 624.875 131.902C617.756 122.174 608.919 112.412 598.084 102.767L602.594 129.507C602.594 129.507 602.494 129.507 602.445 129.507L602.627 129.623C602.627 129.623 549.872 130.3 511.339 167.495L539.104 137.633L522.769 124.552L542.506 133.967L567.628 106.945L547.477 96.7215L570.601 103.741L584.541 88.7605C578.215 85.1268 570.171 79.5772 570.171 79.5772L586.969 86.1509L615.708 55.2482C520.175 68.9075 497.019 137.237 491.42 170.782L491.288 170.501L502.932 113.007L481.196 110.827L503.576 107.887L509.985 71.5501L486.762 74.0276L510.811 67.0906L523.826 0C466.959 48.2121 463.143 100.438 470.576 136.758L469.8 135.932C462.516 99.1329 437.411 43.5379 353.308 26.5092L376.943 54.8518L399.108 51.2181C399.108 51.2181 388.802 55.8263 380.725 59.3774L397.093 78.9991L421.489 73.4826L399.967 82.5172L423.107 111.256L444.133 103.031L426.146 115.418L459.972 155.323C431.894 130.382 382.014 105.079 308.581 135.42L374.185 154.579L391.362 136.395L378.529 155.901L413.759 166.851L426.625 148.303L418.598 168.619L472.459 183.88C439.921 178.941 363.218 178.512 321.348 271.682L382.212 240.582V215.559L386.275 238.55L419.407 222.314L416.021 200L424.131 220.283L443.241 210.323C441.92 201.619 440.367 191.874 440.367 191.874L446.429 208.655L480.915 190.685C482.369 198.761 486.036 220.283 489.785 250.904C475.069 255.876 459.543 263.705 443.373 275.267L492.84 278.008C496.408 312.462 499.464 354.464 500.091 399.918C440.516 391.279 401.999 411.859 378.132 435.627L398.415 409.151L379.833 397.655L401.239 404.823L422.942 374.978L400.991 367.017L425.634 371.327L466.761 316.74C369.18 341.581 355.356 415.427 354.266 449.038L354.051 448.906C355.587 423.355 351.028 389.496 325.824 358.23L354.282 344.24C337.254 340.458 321.81 339.103 307.837 339.632C298.753 331.72 287.984 324.139 275.3 317.103L285.589 342.192C285.589 342.192 285.49 342.208 285.441 342.225L285.639 342.291C285.639 342.291 234.338 354.546 204.906 399.307L225.419 364.077L206.607 354.91L227.93 359.766L246.495 327.872L224.593 322.322L248.691 324.09L258.981 306.4C252.011 304.237 242.943 300.603 242.943 300.603L260.765 303.328L282.005 266.86C191.808 301.198 184.243 372.929 186.159 406.888L185.961 406.64L184.673 347.989L162.986 350.648L184.177 342.869L182.443 306.021L160.344 313.536L182.278 301.478L180.23 233.166C135.354 292.692 143.117 344.488 158.345 378.281L157.42 377.637C142.225 343.332 105.508 294.624 19.721 296.507L49.005 318.953L69.8159 310.546C69.8159 310.546 60.7813 317.301 53.6791 322.554L73.9451 338.096L96.54 327.344L77.5293 340.887L106.433 363.829L125.13 351.177L110.298 367.231L152.069 398.728C119.201 380.577 64.96 366.851 0 412.586L68.2139 416.847L80.9647 395.326L72.7394 417.178L109.522 420.118L117.995 399.191L114.626 420.778L170.534 423.834C137.716 426.163 62.7799 442.613 42.4149 542.721L94.9542 499.001L89.4542 474.589L98.4723 496.127L127.228 473.004L119.019 451.978L131.39 469.981L147.841 456.074C144.636 447.866 140.986 438.715 140.986 438.715L150.599 453.745L180.279 428.624C183.467 436.188 191.775 456.372 202.18 485.408C188.918 493.485 175.489 504.534 162.26 519.383L211.116 511.174C230.308 568.189 253.085 647.717 264.663 731.275L264.266 730.845C271.616 784.029 273.995 840.4 274.21 888.926H342.588C328.368 828.938 321.695 782.03 318.804 747.378C314.081 628.954 336.692 538.046 349.724 496.424L405.005 528.566L414.04 508.68L409.63 530.812L441.986 548.551L447.106 525.775L445.95 550.764L488.001 574.763L461.806 784.326H462.235C457.396 821.39 452.143 861.096 448.262 888.926H531.225L531.308 784.326H531.357C531.357 783.847 531.324 783.352 531.308 782.873L531.39 684.318C532.546 647.42 535.173 606.69 540.293 565.728L542.737 559.336C543.728 549.526 544.835 540.474 545.991 532.167C567.413 415.592 609.464 331.886 631.333 294.145L678.19 337.65L691.387 320.241L682.22 340.871L709.886 365.282L719.878 344.191L713.255 368.321L755.356 406.789C740.97 437.08 741.218 466.017 745.876 488.728L745.099 487.902C737.816 451.103 712.71 395.508 628.607 378.479L652.243 406.822L674.408 403.188C674.408 403.188 664.102 407.796 656.025 411.347L672.393 430.969L696.788 425.452L675.267 434.487L698.407 463.226L719.432 455.001L701.446 467.388L735.272 507.292C707.193 482.352 657.313 457.049 583.88 487.39L649.484 506.549L666.662 488.348L653.828 507.854L689.058 518.805L701.925 500.256L693.898 520.572L747.758 535.833C715.221 530.895 638.517 530.465 596.648 623.636L657.511 592.535V567.512L661.575 590.503L694.707 574.267L691.321 551.953L699.431 572.236L718.541 562.276C717.219 553.572 715.667 543.827 715.667 543.827L721.728 560.608L756.215 542.638C757.669 550.715 761.335 572.236 765.084 602.858C750.368 607.829 734.843 615.658 718.673 627.22L768.14 629.962C775.292 699.216 780.544 798.944 767.727 896.161H819.127C839.773 773.293 883.988 685.078 906.599 646.049L953.457 689.554L966.654 672.145L957.487 692.774L985.152 717.186L995.145 696.094L988.522 720.225L1038.88 766.241C1038.47 762.987 1026.25 673.186 927.311 645.289L968.768 655.777L971.691 636.601L973.293 656.917L1009.35 666.034L1008.16 644.067L1013.53 667.091L1079.23 683.707L1079.17 683.624ZM255.843 393.047C253.498 392.32 251.103 391.643 248.642 391.015L240.185 377.191L255.843 393.047ZM192.27 425.849V424.395L223.85 409.2L247.535 425.073L269.387 412.9L251.268 427.633L281.559 448.691L299.414 434.883L285.639 451.846L324.404 477.364C300.521 467.388 259.79 457.462 215.774 478.042C208.589 461.112 200.76 443.703 192.254 425.882L192.27 425.849ZM296.936 765.283L296.441 764.754L297.168 764.589L296.936 765.283ZM295.45 763.251C294.145 749.113 283.31 648.097 228.161 508.25L229.615 508.003L237.146 484.153L234.09 507.292L270.576 501.809L274.077 479.511L275.696 501.297L296.92 497.564C298.274 488.86 299.744 479.115 299.744 479.115L300.471 496.936L337.501 490.412C282.914 588.224 293.947 745.248 295.433 763.251H295.45ZM317.912 423.801L330.829 454.588C318.127 432.175 295.433 405.517 256.223 393.162L288.876 376.414L272.888 359.402L292.939 374.366L297.795 371.988L301.214 380.312L326.154 382.394L302.899 384.524L316.31 418.895L338.823 417.392L317.929 423.784L317.912 423.801ZM562.442 172.649C560.327 171.426 558.131 170.237 555.868 169.081L550.665 153.737L562.442 172.649ZM493.551 189.264L527.674 181.369L547.279 202.048L571.278 194.979L550.368 205.368L575.292 232.571L595.739 223.024L578.578 236.535L610.786 269.965C589.694 254.984 552.135 236.353 504.666 246.742C501.38 228.64 497.581 209.943 493.187 190.685L493.518 189.264H493.551ZM405.253 454.274L394.748 438.567L409.266 452.127L442.101 434.586L426.691 419.473L445.818 432.588L464.168 422.777C459.279 417.425 453.481 409.96 453.481 409.96L467.289 421.109L500.091 403.584C500.339 427.335 499.926 451.978 498.539 476.984C467.867 462.615 417.26 448.906 363.664 476.489L405.236 454.274H405.253ZM369.725 491.057L412.47 492.18L411.116 472.839L417.145 492.312L454.324 493.286L448.328 472.129L458.618 493.402L497.432 494.409C497.184 497.762 496.953 501.132 496.672 504.485L496.375 503.989C494.888 521.579 492.774 539.384 490.28 557.057C472.178 530.746 435.577 494.575 369.742 491.073L369.725 491.057ZM520.687 544.818L520.324 544.191H521.067L520.687 544.818ZM519.696 542.506C520.357 537.419 522.29 520.968 523.429 495.087L526.386 495.169C525.428 494.376 524.47 493.683 523.528 492.923C525.411 446.924 524.618 372.368 510.133 278.966L511.603 279.049L524.206 257.429L516.129 279.33L552.928 281.989L561.252 261.013L558.048 282.633L579.569 283.657C582.807 275.465 586.374 266.281 586.374 266.281L583.17 283.839L620.729 285.622C545.975 369.048 522.224 524.651 519.696 542.539V542.506ZM616.236 216.302L622.067 249.187C614.618 224.527 598.332 193.542 562.788 172.863L598.332 163.697L586.473 143.596L602.742 162.606L607.994 161.351L609.498 170.237L633.364 177.752L610.208 174.713L615.741 211.198L638.038 214.683L616.253 216.335L616.236 216.302ZM837.708 524.536C835.594 523.314 833.397 522.124 831.134 520.968L825.932 505.624L837.708 524.536ZM768.487 542.556L768.817 541.135L802.941 533.24L822.546 553.919L846.545 546.85L825.635 557.239L850.558 584.442L871.006 574.895L853.845 588.406L886.052 621.835C864.961 606.855 827.402 588.224 779.933 598.613C776.646 580.511 772.847 561.814 768.454 542.556H768.487ZM794.947 894.377C796.78 880.288 808.408 779.371 785.367 630.821L786.837 630.903L799.439 609.283L791.363 631.184L828.161 633.843L836.486 612.867L833.282 634.487L854.803 635.511C858.04 627.319 861.608 618.136 861.608 618.136L858.403 635.693L895.962 637.477C821.208 720.902 797.457 876.506 794.93 894.393L794.947 894.377ZM891.503 568.173L897.333 601.057C889.884 576.398 873.599 545.413 838.055 524.734L873.599 515.567L861.74 495.467L878.009 514.477L883.261 513.222L884.764 522.108L908.631 529.623L885.474 526.584L891.007 563.069L913.305 566.554L891.519 568.206L891.503 568.173Z" fill="#161616"/>
</svg>
