<svg width="800" height="775" viewBox="0 0 800 775" fill="none" xmlns="http://www.w3.org/2000/svg">
<path d="M658.274 642.918C656.074 641.876 653.481 642.223 651.606 643.774L624.052 666.604H615.671L609.951 608.997C613.239 608.789 615.856 606.103 615.856 602.745C615.856 599.388 613.054 596.471 609.581 596.471H486.078C482.605 596.471 479.803 599.272 479.803 602.745C479.803 606.219 482.605 609.02 486.078 609.02H487.653L492.005 652.943L476.654 663.501C474.27 665.145 473.39 668.155 474.316 670.772C474.084 671.42 473.922 672.138 473.922 672.856V774.039H486.472V738.173H618.796C618.912 738.335 619.005 738.474 619.121 738.636C619.399 738.937 619.699 739.192 620 739.423V774.062H632.55V734.931L649.291 719.719V774.062H661.84V648.59C661.84 646.159 660.427 643.936 658.228 642.918H658.274ZM486.472 725.623V679.154H494.576L499.183 725.623H486.449H486.472ZM500.248 609.02H509.579L512.543 638.912C512.358 639.005 512.149 639.097 511.964 639.213L503.791 644.816L500.225 608.997L500.248 609.02ZM505.226 659.102L513.955 653.105L515.298 666.581H505.967L505.226 659.102ZM511.825 725.623L507.218 679.154H516.549L521.156 725.623H511.848H511.825ZM522.175 609.02H531.483L537.202 666.581H527.894L522.175 609.02ZM533.775 725.623L529.168 679.154H538.475L543.083 725.623H533.775ZM544.125 609.02H553.433L559.152 666.581H549.844L544.125 609.02ZM555.702 725.623L551.094 679.154H560.402L565.01 725.623H555.702ZM566.052 609.02H575.36L581.079 666.581H571.771L566.052 609.02ZM577.652 725.623L573.044 679.154H582.352L586.96 725.623H577.652ZM588.002 609.02H597.309L603.028 666.581H593.721L588.002 609.02ZM599.579 725.623L594.971 679.154H604.279L608.886 725.623H599.579ZM620.024 710.527L616.898 679.177H620.024V710.527ZM649.336 702.747L632.596 717.96V675.843L649.336 661.973V702.771V702.747Z" fill="#161616"/>
<path d="M321.57 663.501L306.218 652.943L310.572 609.02H312.146C315.619 609.02 318.42 606.219 318.42 602.745C318.42 599.272 315.619 596.471 312.146 596.471H188.642C185.169 596.471 182.368 599.272 182.368 602.745C182.368 606.219 184.984 608.789 188.272 608.997L182.553 666.604H174.171L146.618 643.774C144.743 642.223 142.149 641.899 139.949 642.918C137.75 643.959 136.338 646.159 136.338 648.59V774.062H148.887V719.719L165.627 734.931V774.062H178.177V739.423C178.478 739.192 178.779 738.937 179.057 738.636C179.196 738.497 179.288 738.335 179.381 738.173H311.706V774.039H324.255V672.856C324.255 672.115 324.093 671.42 323.862 670.772C324.788 668.155 323.908 665.145 321.523 663.501H321.57ZM165.604 717.96L148.864 702.747V661.95L165.604 675.819V717.936V717.96ZM178.177 710.527V679.177H181.303L178.177 710.527ZM198.622 725.623H189.314L193.922 679.154H203.229L198.622 725.623ZM204.48 666.604H195.172L200.891 609.043H210.199L204.48 666.604ZM220.549 725.623H211.241L215.848 679.154H225.156L220.549 725.623ZM226.407 666.604H217.099L222.818 609.043H232.126L226.407 666.604ZM242.499 725.623H233.191L237.798 679.154H247.106L242.499 725.623ZM248.357 666.604H239.049L244.768 609.043H254.075L248.357 666.604ZM264.425 725.623H255.117L259.725 679.154H269.033L264.425 725.623ZM270.283 666.604H260.975L266.694 609.043H276.002L270.283 666.604ZM286.375 725.623H277.068L281.675 679.154H291.006L286.398 725.623H286.375ZM292.233 666.604H282.902L284.245 653.128L292.974 659.125L292.233 666.604ZM294.387 644.839L286.214 639.236C286.028 639.12 285.843 639.028 285.635 638.935L288.598 609.043H297.93L294.364 644.862L294.387 644.839ZM311.729 725.623H298.995L303.602 679.154H311.706V725.623H311.729Z" fill="#161616"/>
<path d="M796.249 340.178L784.672 336.381L461.234 161.059L450.977 155.317L412.472 77.0332L406.266 0H393.833L387.628 77.0332L349.122 155.317L338.865 161.059L15.4277 336.381L3.85069 340.178C0.910139 341.127 -0.687576 344.3 0.284891 347.24C1.04897 349.602 3.24869 351.084 5.58724 351.084C6.16609 351.084 6.74494 350.991 7.32379 350.806L24.8973 345.04C24.851 345.758 24.8975 346.499 25.1522 347.217C25.9163 349.579 28.116 351.06 30.4546 351.06C31.0334 351.06 31.6123 350.968 32.1911 350.783L49.7646 345.017C49.7183 345.735 49.7649 346.476 50.0196 347.194C50.7837 349.556 52.9834 351.037 55.3219 351.037C55.9008 351.037 56.4796 350.945 57.0585 350.76L74.632 344.994C74.5857 345.712 74.6322 346.453 74.8869 347.171C75.651 349.532 77.8507 351.014 80.1893 351.014C80.7681 351.014 81.347 350.922 81.9258 350.736L99.4993 344.971C99.453 345.689 99.4996 346.43 99.7543 347.148C100.518 349.509 102.718 350.991 105.057 350.991C105.635 350.991 106.214 350.898 106.793 350.713L124.367 344.948C124.32 345.666 124.367 346.407 124.622 347.124C125.386 349.486 127.585 350.968 129.924 350.968C130.503 350.968 131.082 350.875 131.661 350.69L149.234 344.925C149.188 345.642 149.234 346.383 149.489 347.101C150.253 349.463 152.453 350.945 154.791 350.945C155.37 350.945 155.949 350.852 156.528 350.667L174.101 344.902C174.055 345.619 174.102 346.36 174.356 347.078C175.12 349.44 177.32 350.922 179.659 350.922C180.237 350.922 180.816 350.829 181.395 350.644L198.969 344.878C198.922 345.596 198.969 346.337 199.224 347.055C199.988 349.417 202.187 350.898 204.526 350.898C205.105 350.898 205.684 350.806 206.263 350.621L223.837 344.855C223.79 345.573 223.836 346.314 224.091 347.032C224.855 349.393 227.055 350.875 229.393 350.875C229.972 350.875 230.551 350.783 231.13 350.597L248.704 344.832C248.658 345.55 248.704 346.291 248.958 347.009C249.722 349.37 251.922 350.852 254.261 350.852C254.84 350.852 255.418 350.759 255.997 350.574L273.571 344.809C273.525 345.527 273.571 346.268 273.826 346.985C274.59 349.347 276.789 350.829 279.128 350.829C279.707 350.829 280.286 350.736 280.865 350.551L298.439 344.786C298.392 345.504 298.438 346.244 298.693 346.962C299.457 349.324 301.657 350.806 303.995 350.806C304.574 350.806 305.153 350.713 305.732 350.528L323.306 344.763C323.26 345.48 323.306 346.221 323.56 346.939C324.324 349.301 326.524 350.783 328.863 350.783C329.442 350.783 330.02 350.69 330.599 350.505L348.173 344.74C348.127 345.457 348.173 346.198 348.428 346.916C349.192 349.278 351.392 350.76 353.73 350.76C354.309 350.76 354.888 350.667 355.467 350.482L374.893 344.114V773.713H424.581V344.114L444.007 350.482C444.586 350.667 445.165 350.76 445.744 350.76C448.106 350.76 450.282 349.255 451.046 346.916C451.278 346.198 451.371 345.457 451.301 344.74L468.875 350.505C469.454 350.69 470.032 350.783 470.611 350.783C472.973 350.783 475.15 349.278 475.914 346.939C476.145 346.221 476.238 345.48 476.169 344.763L493.742 350.528C494.321 350.713 494.9 350.806 495.479 350.806C497.84 350.806 500.017 349.301 500.781 346.962C501.013 346.244 501.105 345.504 501.036 344.786L518.609 350.551C519.188 350.736 519.767 350.829 520.346 350.829C522.708 350.829 524.884 349.324 525.648 346.985C525.88 346.268 525.973 345.527 525.903 344.809L543.477 350.574C544.056 350.759 544.634 350.852 545.213 350.852C547.575 350.852 549.752 349.347 550.516 347.009C550.747 346.291 550.84 345.55 550.771 344.832L568.344 350.597C568.923 350.783 569.502 350.875 570.081 350.875C572.442 350.875 574.619 349.37 575.383 347.032C575.615 346.314 575.707 345.573 575.638 344.855L593.211 350.621C593.79 350.806 594.369 350.898 594.948 350.898C597.31 350.898 599.486 349.393 600.25 347.055C600.482 346.337 600.575 345.596 600.505 344.878L618.079 350.644C618.658 350.829 619.237 350.922 619.815 350.922C622.177 350.922 624.354 349.417 625.118 347.078C625.349 346.36 625.442 345.619 625.373 344.902L642.946 350.667C643.525 350.852 644.104 350.945 644.683 350.945C647.044 350.945 649.221 349.44 649.985 347.101C650.217 346.383 650.309 345.642 650.24 344.925L667.814 350.69C668.393 350.875 668.972 350.968 669.551 350.968C671.912 350.968 674.088 349.463 674.852 347.124C675.084 346.407 675.177 345.666 675.107 344.948L692.681 350.713C693.26 350.898 693.839 350.991 694.418 350.991C696.78 350.991 698.956 349.486 699.72 347.148C699.951 346.43 700.044 345.689 699.975 344.971L717.549 350.736C718.128 350.922 718.706 351.014 719.285 351.014C721.647 351.014 723.823 349.509 724.587 347.171C724.819 346.453 724.911 345.712 724.842 344.994L742.416 350.76C742.995 350.945 743.574 351.037 744.153 351.037C746.514 351.037 748.69 349.532 749.454 347.194C749.686 346.476 749.779 345.735 749.709 345.017L767.283 350.783C767.862 350.968 768.441 351.06 769.02 351.06C771.382 351.06 773.558 349.556 774.322 347.217C774.554 346.499 774.646 345.758 774.577 345.04L792.151 350.806C792.73 350.991 793.308 351.084 793.887 351.084C796.249 351.084 798.426 349.579 799.19 347.24C800.162 344.3 798.541 341.151 795.624 340.178H796.249ZM585.154 269.952C586.566 269.211 588.882 269.211 590.317 269.929L624.192 286.831C625.627 287.549 625.651 288.73 624.238 289.448C623.52 289.818 622.571 290.003 621.621 290.003C620.672 290.003 619.769 289.818 619.075 289.471L585.2 272.569C583.765 271.851 583.742 270.67 585.154 269.929V269.952ZM419.927 286.831C421.363 287.549 421.386 288.73 419.974 289.448C419.256 289.818 418.306 290.003 417.357 290.003C416.408 290.003 415.505 289.818 414.811 289.471L399.228 281.691L383.645 289.471C382.927 289.818 382.024 290.003 381.098 290.003C380.172 290.003 379.199 289.818 378.482 289.448C377.069 288.707 377.092 287.549 378.528 286.831L393.995 279.121L384.618 274.444L354.448 289.494C353.73 289.841 352.827 290.027 351.901 290.027C350.975 290.027 350.002 289.841 349.285 289.471C347.872 288.73 347.896 287.572 349.331 286.855L379.917 271.596C379.732 271.017 379.987 270.415 380.843 269.975C381.862 269.443 383.321 269.304 384.618 269.535C385.891 269.327 387.373 269.466 388.392 269.975C389.248 270.415 389.503 271.017 389.318 271.596L399.228 276.551L409.137 271.596C408.952 271.017 409.207 270.415 410.064 269.975C411.083 269.443 412.541 269.304 413.838 269.535C415.111 269.327 416.593 269.466 417.612 269.975C418.469 270.415 418.723 271.017 418.538 271.596L449.124 286.855C450.56 287.572 450.583 288.753 449.171 289.471C448.453 289.841 447.504 290.027 446.555 290.027C445.605 290.027 444.702 289.841 444.007 289.494L413.838 274.444L404.46 279.121L419.927 286.831ZM232.681 286.831L266.556 269.929C267.991 269.211 270.306 269.211 271.719 269.952C273.131 270.693 273.108 271.851 271.673 272.592L237.798 289.494C237.08 289.841 236.178 290.027 235.251 290.027C234.325 290.027 233.352 289.841 232.635 289.471C231.222 288.73 231.245 287.572 232.681 286.855V286.831ZM208.601 289.494C207.883 289.841 206.98 290.027 206.054 290.027C205.128 290.027 204.156 289.841 203.438 289.471C202.025 288.73 202.049 287.572 203.484 286.855L237.358 269.952C238.794 269.234 241.109 269.234 242.521 269.975C243.934 270.716 243.911 271.874 242.475 272.615L208.601 289.517V289.494ZM380.89 201.764C381.908 201.231 383.367 201.092 384.664 201.324C385.938 201.115 387.419 201.254 388.438 201.764C389.295 202.204 389.55 202.806 389.364 203.384L399.274 208.339L409.184 203.384C408.998 202.806 409.254 202.204 410.11 201.764C411.129 201.231 412.587 201.092 413.884 201.324C415.158 201.115 416.64 201.254 417.658 201.764C418.515 202.204 418.77 202.806 418.584 203.384L449.171 218.643C450.606 219.361 450.629 220.542 449.217 221.259C448.499 221.63 447.55 221.815 446.601 221.815C445.652 221.815 444.748 221.63 444.054 221.283L413.884 206.232L404.507 210.91L419.974 218.62C421.409 219.338 421.433 220.518 420.02 221.236C419.302 221.607 418.353 221.792 417.404 221.792C416.454 221.792 415.552 221.607 414.857 221.259L399.274 213.48L383.691 221.259C382.973 221.607 382.071 221.792 381.145 221.792C380.218 221.792 379.246 221.607 378.528 221.236C377.115 220.495 377.139 219.338 378.574 218.62L394.041 210.91L384.664 206.232L354.494 221.283C353.777 221.63 352.873 221.815 351.947 221.815C351.021 221.815 350.049 221.63 349.331 221.259C347.919 220.518 347.942 219.361 349.377 218.643L379.964 203.384C379.778 202.806 380.033 202.204 380.89 201.764ZM507.45 252.749C508.885 253.467 508.908 254.647 507.495 255.365C506.778 255.736 505.829 255.921 504.879 255.921C503.93 255.921 503.027 255.736 502.332 255.388L468.458 238.486C467.023 237.768 466.999 236.587 468.412 235.846C469.824 235.105 472.139 235.105 473.575 235.823L507.45 252.726V252.749ZM497.609 235.869C499.022 235.129 501.337 235.129 502.772 235.846L536.646 252.749C538.082 253.467 538.105 254.647 536.693 255.365C535.975 255.736 535.026 255.921 534.077 255.921C533.127 255.921 532.224 255.736 531.53 255.388L497.655 238.486C496.219 237.768 496.197 236.587 497.609 235.846V235.869ZM478.275 252.749C479.711 253.467 479.734 254.647 478.322 255.365C477.604 255.736 476.654 255.921 475.705 255.921C474.756 255.921 473.853 255.736 473.158 255.388L439.284 238.486C437.848 237.768 437.825 236.587 439.238 235.846C440.65 235.105 442.965 235.105 444.401 235.823L478.275 252.726V252.749ZM419.927 252.749C421.363 253.467 421.386 254.647 419.974 255.365C419.256 255.736 418.306 255.921 417.357 255.921C416.408 255.921 415.505 255.736 414.811 255.388L399.228 247.609L383.645 255.388C382.927 255.736 382.024 255.921 381.098 255.921C380.172 255.921 379.199 255.736 378.482 255.365C377.069 254.624 377.092 253.467 378.528 252.749L393.995 245.038L384.618 240.361L354.448 255.411C353.73 255.759 352.827 255.944 351.901 255.944C350.975 255.944 350.002 255.759 349.285 255.388C347.872 254.647 347.896 253.49 349.331 252.772L379.917 237.513C379.732 236.935 379.987 236.333 380.843 235.893C381.862 235.36 383.321 235.221 384.618 235.453C385.891 235.244 387.373 235.383 388.392 235.893C389.248 236.333 389.503 236.935 389.318 237.513L399.228 242.468L409.137 237.513C408.952 236.935 409.207 236.333 410.064 235.893C411.083 235.36 412.541 235.221 413.838 235.453C415.111 235.244 416.593 235.383 417.612 235.893C418.469 236.333 418.723 236.935 418.538 237.513L449.124 252.772C450.56 253.49 450.583 254.671 449.171 255.388C448.453 255.759 447.504 255.944 446.555 255.944C445.605 255.944 444.702 255.759 444.007 255.411L413.838 240.361L404.46 245.038L419.927 252.749ZM354.078 235.823C355.513 235.105 357.829 235.105 359.241 235.846C360.653 236.587 360.63 237.745 359.195 238.486L325.32 255.388C324.602 255.736 323.7 255.921 322.773 255.921C321.847 255.921 320.875 255.736 320.157 255.365C318.744 254.624 318.768 253.467 320.203 252.749L354.078 235.846V235.823ZM329.997 238.486L296.123 255.388C295.405 255.736 294.502 255.921 293.576 255.921C292.65 255.921 291.678 255.736 290.96 255.365C289.548 254.624 289.57 253.467 291.006 252.749L324.88 235.846C326.316 235.129 328.631 235.129 330.044 235.869C331.456 236.61 331.433 237.768 329.997 238.509V238.486ZM300.824 238.486L266.949 255.388C266.231 255.736 265.328 255.921 264.402 255.921C263.476 255.921 262.503 255.736 261.786 255.365C260.373 254.624 260.397 253.467 261.832 252.749L295.706 235.846C297.142 235.129 299.457 235.129 300.869 235.869C302.282 236.61 302.259 237.768 300.824 238.509V238.486ZM261.855 286.831L295.729 269.929C297.165 269.211 299.48 269.211 300.893 269.952C302.305 270.693 302.282 271.851 300.846 272.592L266.972 289.494C266.254 289.841 265.351 290.027 264.425 290.027C263.499 290.027 262.527 289.841 261.809 289.471C260.397 288.73 260.42 287.572 261.855 286.855V286.831ZM291.029 286.831L324.903 269.929C326.339 269.211 328.654 269.211 330.067 269.952C331.479 270.693 331.456 271.851 330.02 272.592L296.146 289.494C295.429 289.841 294.525 290.027 293.599 290.027C292.673 290.027 291.701 289.841 290.983 289.471C289.571 288.73 289.593 287.572 291.029 286.855V286.831ZM320.203 286.831L354.078 269.929C355.513 269.211 357.829 269.211 359.241 269.952C360.653 270.693 360.63 271.851 359.195 272.592L325.32 289.494C324.602 289.841 323.7 290.027 322.773 290.027C321.847 290.027 320.875 289.841 320.157 289.471C318.744 288.73 318.768 287.572 320.203 286.855V286.831ZM439.307 272.592C437.872 271.874 437.848 270.693 439.261 269.952C440.673 269.211 442.988 269.211 444.424 269.929L478.299 286.831C479.734 287.549 479.757 288.73 478.345 289.448C477.627 289.818 476.678 290.003 475.728 290.003C474.779 290.003 473.876 289.818 473.182 289.471L439.307 272.569V272.592ZM468.481 272.592C467.046 271.874 467.023 270.693 468.435 269.952C469.847 269.211 472.163 269.211 473.598 269.929L507.473 286.831C508.908 287.549 508.931 288.73 507.519 289.448C506.801 289.818 505.852 290.003 504.902 290.003C503.953 290.003 503.05 289.818 502.355 289.471L468.481 272.569V272.592ZM497.655 272.592C496.219 271.874 496.197 270.693 497.609 269.952C499.022 269.211 501.337 269.211 502.772 269.929L536.646 286.831C538.082 287.549 538.105 288.73 536.693 289.448C535.975 289.818 535.026 290.003 534.077 290.003C533.127 290.003 532.224 289.818 531.53 289.471L497.655 272.569V272.592ZM526.852 272.592C525.417 271.874 525.394 270.693 526.806 269.952C528.218 269.211 530.534 269.211 531.969 269.929L565.844 286.831C567.279 287.549 567.303 288.73 565.89 289.448C565.172 289.818 564.223 290.003 563.273 290.003C562.324 290.003 561.422 289.818 560.727 289.471L526.852 272.569V272.592ZM556.027 272.592C554.591 271.874 554.568 270.693 555.98 269.952C557.393 269.211 559.708 269.211 561.144 269.929L595.018 286.831C596.453 287.549 596.476 288.73 595.064 289.448C594.346 289.818 593.397 290.003 592.448 290.003C591.498 290.003 590.595 289.818 589.901 289.471L556.027 272.569V272.592ZM526.783 235.869C528.195 235.129 530.511 235.129 531.946 235.846L565.821 252.749C567.256 253.467 567.279 254.647 565.867 255.365C565.149 255.736 564.2 255.921 563.25 255.921C562.301 255.921 561.398 255.736 560.704 255.388L526.829 238.486C525.394 237.768 525.37 236.587 526.783 235.846V235.869ZM468.435 201.764C469.847 201.023 472.163 201.023 473.598 201.741L507.473 218.643C508.908 219.361 508.931 220.542 507.519 221.259C506.801 221.63 505.852 221.815 504.902 221.815C503.953 221.815 503.05 221.63 502.355 221.283L468.481 204.38C467.046 203.662 467.023 202.481 468.435 201.764ZM478.275 218.643C479.711 219.361 479.734 220.542 478.322 221.259C477.604 221.63 476.654 221.815 475.705 221.815C474.756 221.815 473.853 221.63 473.158 221.283L439.284 204.38C437.848 203.662 437.825 202.481 439.238 201.764C440.65 201.023 442.965 201.023 444.401 201.741L478.275 218.643ZM412.124 103.29C413.49 102.896 414.903 103.637 415.32 104.98L428.957 149.297C429.374 150.64 428.61 152.075 427.267 152.492C427.012 152.562 426.758 152.608 426.503 152.608C425.415 152.608 424.396 151.913 424.072 150.802L410.434 106.485C410.017 105.142 410.781 103.707 412.124 103.29ZM396.681 95.5101C396.681 94.0977 397.816 92.9632 399.228 92.9632C400.64 92.9632 401.775 94.0977 401.775 95.5101V150.061C401.775 151.473 400.64 152.608 399.228 152.608C397.816 152.608 396.681 151.473 396.681 150.061V95.5101ZM372.925 149.297L386.562 104.98C386.979 103.637 388.415 102.896 389.758 103.29C391.101 103.707 391.865 105.142 391.448 106.485L377.811 150.802C377.463 151.89 376.467 152.608 375.379 152.608C375.125 152.608 374.87 152.562 374.615 152.492C373.272 152.075 372.508 150.64 372.925 149.297ZM349.401 184.537L379.987 169.279C379.802 168.7 380.056 168.098 380.913 167.658C381.932 167.125 383.391 166.986 384.687 167.218C385.961 167.01 387.442 167.148 388.461 167.658C389.318 168.098 389.573 168.7 389.388 169.279L399.297 174.234L409.207 169.279C409.022 168.7 409.277 168.098 410.133 167.658C411.152 167.125 412.611 166.986 413.907 167.218C415.181 167.01 416.663 167.148 417.682 167.658C418.538 168.098 418.793 168.7 418.608 169.279L449.194 184.537C450.629 185.255 450.653 186.436 449.24 187.177C448.522 187.547 447.573 187.732 446.624 187.732C445.675 187.732 444.772 187.547 444.077 187.2L413.907 172.15L404.53 176.827L419.997 184.537C421.433 185.255 421.456 186.436 420.043 187.177C419.326 187.547 418.376 187.732 417.427 187.732C416.477 187.732 415.574 187.547 414.88 187.2L399.297 179.42L383.714 187.2C382.997 187.547 382.094 187.732 381.168 187.732C380.242 187.732 379.269 187.547 378.551 187.177C377.139 186.436 377.162 185.278 378.597 184.537L394.064 176.827L384.687 172.15L354.518 187.2C353.8 187.547 352.897 187.732 351.97 187.732C351.044 187.732 350.072 187.547 349.354 187.177C347.942 186.436 347.965 185.278 349.401 184.537ZM354.078 201.741C355.513 201.023 357.829 201.023 359.241 201.764C360.653 202.505 360.63 203.662 359.195 204.38L325.32 221.283C324.602 221.63 323.7 221.815 322.773 221.815C321.847 221.815 320.875 221.63 320.157 221.259C318.744 220.518 318.768 219.361 320.203 218.643L354.078 201.741ZM291.029 218.643L324.903 201.741C326.339 201.023 328.654 201.023 330.067 201.764C331.479 202.505 331.456 203.662 330.02 204.38L296.146 221.283C295.429 221.63 294.525 221.815 293.599 221.815C292.673 221.815 291.701 221.63 290.983 221.259C289.571 220.518 289.593 219.361 291.029 218.643ZM232.681 252.749L266.556 235.846C267.991 235.129 270.306 235.129 271.719 235.869C273.131 236.61 273.108 237.768 271.673 238.509L237.798 255.411C237.08 255.759 236.178 255.944 235.251 255.944C234.325 255.944 233.352 255.759 232.635 255.388C231.222 254.647 231.245 253.49 232.681 252.772V252.749ZM174.31 286.831L208.184 269.929C209.62 269.211 211.935 269.211 213.348 269.952C214.76 270.693 214.737 271.851 213.301 272.592L179.427 289.494C178.709 289.841 177.806 290.027 176.88 290.027C175.954 290.027 174.981 289.841 174.264 289.471C172.851 288.73 172.874 287.572 174.31 286.855V286.831ZM121.056 323.6C120.338 323.947 119.435 324.132 118.509 324.132C117.582 324.132 116.61 323.947 115.893 323.577C114.48 322.836 114.503 321.678 115.939 320.96L149.813 304.058C151.248 303.34 153.564 303.34 154.976 304.081C156.389 304.822 156.366 305.98 154.93 306.721L121.056 323.623V323.6ZM150.23 323.6C149.512 323.947 148.609 324.132 147.683 324.132C146.757 324.132 145.785 323.947 145.067 323.577C143.654 322.836 143.678 321.678 145.113 320.96L178.987 304.058C180.423 303.34 182.738 303.34 184.15 304.081C185.563 304.822 185.54 305.98 184.104 306.721L150.23 323.623V323.6ZM179.427 323.6C178.709 323.947 177.806 324.132 176.88 324.132C175.954 324.132 174.981 323.947 174.264 323.577C172.851 322.836 172.874 321.678 174.31 320.96L208.184 304.058C209.62 303.34 211.935 303.34 213.348 304.081C214.76 304.822 214.737 305.98 213.301 306.721L179.427 323.623V323.6ZM208.601 323.6C207.883 323.947 206.98 324.132 206.054 324.132C205.128 324.132 204.156 323.947 203.438 323.577C202.025 322.836 202.049 321.678 203.484 320.96L237.358 304.058C238.794 303.34 241.109 303.34 242.521 304.081C243.934 304.822 243.911 305.98 242.475 306.721L208.601 323.623V323.6ZM237.775 323.6C237.057 323.947 236.154 324.132 235.228 324.132C234.302 324.132 233.329 323.947 232.611 323.577C231.199 322.836 231.222 321.678 232.658 320.96L266.532 304.058C267.968 303.34 270.283 303.34 271.696 304.081C273.108 304.822 273.085 305.98 271.649 306.721L237.775 323.623V323.6ZM266.949 323.6C266.231 323.947 265.328 324.132 264.402 324.132C263.476 324.132 262.503 323.947 261.786 323.577C260.373 322.836 260.397 321.678 261.832 320.96L295.706 304.058C297.142 303.34 299.457 303.34 300.869 304.081C302.282 304.822 302.259 305.98 300.824 306.721L266.949 323.623V323.6ZM296.123 323.6C295.405 323.947 294.502 324.132 293.576 324.132C292.65 324.132 291.678 323.947 290.96 323.577C289.548 322.836 289.57 321.678 291.006 320.96L324.88 304.058C326.316 303.34 328.631 303.34 330.044 304.081C331.456 304.822 331.433 305.98 329.997 306.721L296.123 323.623V323.6ZM325.32 323.6C324.602 323.947 323.7 324.132 322.773 324.132C321.847 324.132 320.875 323.947 320.157 323.577C318.744 322.836 318.768 321.678 320.203 320.96L354.078 304.058C355.513 303.34 357.829 303.34 359.241 304.081C360.653 304.822 360.63 305.98 359.195 306.721L325.32 323.623V323.6ZM449.147 323.577C448.43 323.947 447.481 324.132 446.531 324.132C445.582 324.132 444.679 323.947 443.984 323.6L413.815 308.55L404.438 313.227L419.904 320.937C421.34 321.655 421.363 322.836 419.951 323.554C419.233 323.924 418.283 324.109 417.334 324.109C416.385 324.109 415.482 323.924 414.787 323.577L399.205 315.797L383.622 323.577C382.904 323.924 382.001 324.109 381.075 324.109C380.149 324.109 379.176 323.924 378.458 323.554C377.046 322.813 377.069 321.655 378.505 320.937L393.972 313.227L384.594 308.55L354.425 323.6C353.707 323.947 352.804 324.132 351.878 324.132C350.951 324.132 349.979 323.947 349.262 323.577C347.849 322.836 347.872 321.678 349.308 320.96L379.894 305.702C379.709 305.123 379.963 304.521 380.82 304.081C381.839 303.549 383.298 303.41 384.594 303.641C385.868 303.433 387.35 303.572 388.368 304.081C389.225 304.521 389.48 305.123 389.295 305.702L399.205 310.657L409.114 305.702C408.929 305.123 409.184 304.521 410.041 304.081C411.059 303.549 412.518 303.41 413.815 303.641C415.088 303.433 416.57 303.572 417.589 304.081C418.446 304.521 418.7 305.123 418.515 305.702L449.101 320.96C450.537 321.678 450.56 322.859 449.147 323.577ZM478.322 323.577C477.604 323.947 476.654 324.132 475.705 324.132C474.756 324.132 473.853 323.947 473.158 323.6L439.284 306.698C437.848 305.98 437.825 304.799 439.238 304.058C440.65 303.317 442.965 303.317 444.401 304.035L478.275 320.937C479.711 321.655 479.734 322.836 478.322 323.554V323.577ZM507.519 323.577C506.801 323.947 505.852 324.132 504.902 324.132C503.953 324.132 503.05 323.947 502.355 323.6L468.481 306.698C467.046 305.98 467.023 304.799 468.435 304.058C469.847 303.317 472.163 303.317 473.598 304.035L507.473 320.937C508.908 321.655 508.931 322.836 507.519 323.554V323.577ZM536.693 323.577C535.975 323.947 535.026 324.132 534.077 324.132C533.127 324.132 532.224 323.947 531.53 323.6L497.655 306.698C496.219 305.98 496.197 304.799 497.609 304.058C499.022 303.317 501.337 303.317 502.772 304.035L536.646 320.937C538.082 321.655 538.105 322.836 536.693 323.554V323.577ZM565.867 323.577C565.149 323.947 564.2 324.132 563.25 324.132C562.301 324.132 561.398 323.947 560.704 323.6L526.829 306.698C525.394 305.98 525.37 304.799 526.783 304.058C528.195 303.317 530.511 303.317 531.946 304.035L565.821 320.937C567.256 321.655 567.279 322.836 565.867 323.554V323.577ZM595.041 323.577C594.323 323.947 593.374 324.132 592.425 324.132C591.475 324.132 590.572 323.947 589.877 323.6L556.003 306.698C554.568 305.98 554.545 304.799 555.957 304.058C557.369 303.317 559.685 303.317 561.12 304.035L594.994 320.937C596.43 321.655 596.453 322.836 595.041 323.554V323.577ZM624.238 323.577C623.52 323.947 622.571 324.132 621.621 324.132C620.672 324.132 619.769 323.947 619.075 323.6L585.2 306.698C583.765 305.98 583.742 304.799 585.154 304.058C586.566 303.317 588.882 303.317 590.317 304.035L624.192 320.937C625.627 321.655 625.651 322.836 624.238 323.554V323.577ZM653.412 323.577C652.694 323.947 651.745 324.132 650.796 324.132C649.846 324.132 648.943 323.947 648.248 323.6L614.375 306.698C612.939 305.98 612.916 304.799 614.328 304.058C615.741 303.317 618.056 303.317 619.491 304.035L653.365 320.937C654.801 321.655 654.824 322.836 653.412 323.554V323.577ZM682.586 323.577C681.868 323.947 680.919 324.132 679.97 324.132C679.021 324.132 678.117 323.947 677.423 323.6L643.548 306.698C642.113 305.98 642.09 304.799 643.502 304.058C644.915 303.317 647.23 303.317 648.666 304.035L682.54 320.937C683.975 321.655 683.998 322.836 682.586 323.554V323.577Z" fill="#161616"/>
</svg>
