<svg width="2595" height="536" viewBox="0 0 2595 536" fill="none" xmlns="http://www.w3.org/2000/svg">
<path d="M2594.22 354.596V343.761H2374.96V287.01H2409.2C2421.19 274.193 2409.2 268.842 2409.2 268.842L2080.54 1.42043L2233.86 285.622H2233.74V345.578H2201.79V305.31H2164.13V345.578H2134.46V285.622H2224.76L2071.55 0.0330404L1918.34 285.622H1961.57V345.578H1888.81V286.993H1908.5L2062.57 1.40393L1733.9 268.825C1733.9 268.825 1721.91 274.176 1733.9 286.993H1800.66V343.745H1548.17V286.993H1582.41C1594.4 274.176 1582.41 268.825 1582.41 268.825L1253.75 1.40393L1407.07 285.606H1406.95V345.561H1374.99V305.294H1337.34V345.561H1307.67V285.606H1397.97L1244.76 0.0165328L1091.55 285.606H1134.78V345.561H1062.02V286.977H1081.71L1235.78 1.38742L907.111 268.809C907.111 268.809 895.136 274.16 907.111 286.977H973.871V343.728H721.381V286.977H755.62C767.595 274.16 755.62 268.809 755.62 268.809L426.955 1.38742L580.279 285.589H580.164V345.545H548.204V305.277H510.546V345.545H480.882V285.589H571.179L417.97 0L264.762 285.589H307.986V345.545H235.23V286.96H254.918L408.985 1.37089L80.2709 268.842C80.2709 268.842 68.2963 274.193 80.2709 287.01H147.031V343.761H0V354.596H2.31233V396.846H0V435.296H117.087V535.982H140.193V435.296H154.745L204.79 480.222V480.569H205.17L255.744 525.989V535.982H282.27L282.237 535.949H282.27V461.277H281.658L278.834 458.667V435.296H502.222V535.982H525.329V435.296H742.737V535.982H765.844V435.296H943.877V535.982H966.984V435.296H981.535L1031.58 480.222V480.569H1031.96L1082.53 525.989V535.982H1109.06L1109.03 535.949H1109.06V461.277H1108.45L1105.64 458.667V435.296H1329.03V535.982H1352.14V435.296H1569.54V535.982H1592.65V435.296H1770.68V535.982H1793.79V435.296H1808.34L1858.39 480.222V480.569H1858.77L1909.34 525.989V535.982H1935.87L1935.83 535.949H1935.87V461.277H1935.26L1932.43 458.667V435.296H2155.82V535.982H2178.93V435.296H2396.33V535.982H2419.44V435.296H2594.19V396.846H2585.52V354.596H2594.19H2594.22ZM21.4221 396.846H9.62921V354.596H21.4221V396.846ZM40.5153 396.846H28.7225V354.596H40.5153V396.846ZM59.6251 396.846H47.8322V354.596H59.6251V396.846ZM78.7184 396.846H66.9255V354.596H78.7184V396.846ZM97.8281 396.846H86.0352V354.596H97.8281V396.846ZM116.921 396.846H105.128V354.596H116.921V396.846ZM136.031 396.846H124.238V354.596H136.031V396.846ZM147.031 396.846H143.315V354.596H147.031V396.846ZM165.877 287.01H216.368V345.594H165.877V287.01ZM171.426 436.436L170.155 435.296H171.426V436.436ZM171.426 396.846H165.877V368.668L171.426 373.788V396.846ZM188.092 451.4L179.239 443.439V435.28H188.092V451.4ZM188.092 396.846H179.239V380.99L188.092 389.165V396.846ZM204.773 466.381L195.921 458.42V435.28H204.773V466.381ZM195.921 396.846V396.383L196.433 396.846H195.921ZM168.585 356.578H216.368V396.846H212.09L168.585 356.578ZM221.455 481.361L212.602 473.4V435.28H221.455V481.361ZM238.137 496.342L229.284 488.381V435.28H238.104L238.137 435.313V496.342ZM255.744 512.148L245.966 503.361V442.531L255.744 451.549V512.148ZM255.744 437.262L253.613 435.28H255.744V437.262ZM307.953 396.846H235.197V356.578H307.953V396.846ZM510.513 396.846H480.849V356.578H510.513V396.846ZM580.131 396.846H548.171V356.578H580.131V396.846ZM630.341 396.846H598.96V356.578H630.341V396.846ZM702.519 396.846H667.999V356.578H702.519V396.846ZM702.519 345.594H667.999V305.327H630.341V345.594H598.96V287.01H702.519V345.594ZM733.62 396.846H721.348V354.596H733.62V396.846ZM752.73 396.846H740.937V354.596H752.73V396.846ZM771.823 396.846H760.03V354.596H771.823V396.846ZM790.933 396.846H779.14V354.596H790.933V396.846ZM810.026 396.846H798.233V354.596H810.026V396.846ZM829.136 396.846H817.343V354.596H829.136V396.846ZM848.229 396.846H836.436V354.596H848.229V396.846ZM867.322 396.846H855.529V354.596H867.322V396.846ZM886.432 396.846H874.639V354.596H886.432V396.846ZM905.525 396.846H893.732V354.596H905.525V396.846ZM924.635 396.846H912.842V354.596H924.635V396.846ZM943.728 396.846H931.935V354.596H943.728V396.846ZM962.838 396.846H951.045V354.596H962.838V396.846ZM973.855 396.846H970.138V354.596H973.855V396.846ZM992.684 287.01H1043.18V345.594H992.684V287.01ZM998.233 436.436L996.962 435.296H998.233V436.436ZM998.233 396.846H992.684V368.668L998.233 373.788V396.846ZM1014.92 451.4L1006.06 443.439V435.28H1014.92V451.4ZM1014.92 396.846H1006.06V380.99L1014.92 389.165V396.846ZM1031.6 466.381L1022.74 458.42V435.28H1031.6V466.381ZM1022.73 396.846V396.383L1023.24 396.846H1022.73ZM995.392 356.578H1043.18V396.846H1038.88L995.376 356.578H995.392ZM1048.26 481.361L1039.41 473.4V435.28H1048.26V481.361ZM1064.94 496.342L1056.09 488.381V435.28H1064.93L1064.96 435.313V496.342H1064.94ZM1082.55 512.148L1072.77 503.361V442.531L1082.55 451.549V512.148ZM1082.55 437.262L1080.42 435.28H1082.55V437.262ZM1134.76 396.846H1062V356.578H1134.76V396.846ZM1337.32 396.846H1307.66V356.578H1337.32V396.846ZM1406.94 396.846H1374.98V356.578H1406.94V396.846ZM1457.15 396.846H1425.77V356.578H1457.15V396.846ZM1529.34 396.846H1494.82V356.578H1529.34V396.846ZM1529.34 345.594H1494.82V305.327H1457.17V345.594H1425.78V287.01H1529.34V345.594ZM1560.43 396.846H1548.16V354.596H1560.43V396.846ZM1579.54 396.846H1567.74V354.596H1579.54V396.846ZM1598.63 396.846H1586.84V354.596H1598.63V396.846ZM1617.74 396.846H1605.95V354.596H1617.74V396.846ZM1636.83 396.846H1625.04V354.596H1636.83V396.846ZM1655.94 396.846H1644.15V354.596H1655.94V396.846ZM1675.04 396.846H1663.24V354.596H1675.04V396.846ZM1694.15 396.846H1682.35V354.596H1694.15V396.846ZM1713.24 396.846H1701.45V354.596H1713.24V396.846ZM1732.35 396.846H1720.56V354.596H1732.35V396.846ZM1751.44 396.846H1739.65V354.596H1751.44V396.846ZM1770.55 396.846H1758.76V354.596H1770.55V396.846ZM1789.65 396.846H1777.85V354.596H1789.65V396.846ZM1800.66 396.846H1796.95V354.596H1800.66V396.846ZM1819.49 287.01H1869.98V345.594H1819.49V287.01ZM1825.04 436.436L1823.77 435.296H1825.04V436.436ZM1825.04 396.846H1819.49V368.668L1825.04 373.788V396.846ZM1841.72 451.4L1832.87 443.439V435.28H1841.72V451.4ZM1841.72 396.846H1832.87V380.99L1841.72 389.165V396.846ZM1858.4 466.381L1849.55 458.42V435.28H1858.4V466.381ZM1849.53 396.846V396.383L1850.03 396.846H1849.53ZM1822.2 356.578H1869.98V396.846H1865.7L1822.2 356.578ZM1875.09 481.361L1866.23 473.4V435.28H1875.09V481.361ZM1891.75 496.342L1882.9 488.381V435.28H1891.73L1891.77 435.313V496.342H1891.75ZM1909.36 512.148L1899.58 503.361V442.531L1909.36 451.549V512.148ZM1909.36 437.262L1907.23 435.28H1909.36V437.262ZM1961.57 396.846H1888.81V356.578H1961.57V396.846ZM2164.13 396.846H2134.46V356.578H2164.13V396.846ZM2233.74 396.846H2201.79V356.578H2233.74V396.846ZM2283.96 396.846H2252.57V356.578H2283.96V396.846ZM2356.15 396.846H2321.63V356.578H2356.15V396.846ZM2356.15 345.594H2321.63V305.327H2283.97V345.594H2252.59V287.01H2356.15V345.594ZM2387.23 396.846H2374.96V354.596H2387.23V396.846ZM2406.34 396.846H2394.55V354.596H2406.34V396.846ZM2425.44 396.846H2413.64V354.596H2425.44V396.846ZM2444.55 396.846H2432.75V354.596H2444.55V396.846ZM2463.64 396.846H2451.85V354.596H2463.64V396.846ZM2482.75 396.846H2470.96V354.596H2482.75V396.846ZM2501.84 396.846H2490.05V354.596H2501.84V396.846ZM2520.95 396.846H2509.16V354.596H2520.95V396.846ZM2540.05 396.846H2528.25V354.596H2540.05V396.846ZM2559.16 396.846H2547.36V354.596H2559.16V396.846ZM2578.25 396.846H2566.46V354.596H2578.25V396.846Z" fill="#161616"/>
</svg>
