<svg viewBox="0 0 100 100" fill="none" stroke="currentColor" stroke-width="2" stroke-linecap="round" stroke-linejoin="round" xmlns="http://www.w3.org/2000/svg">
  <line x1="10" y1="50" x2="90" y2="50" />
  <polygon points="15,50 20,35 25,50" />
  <polygon points="25,50 30,35 35,50" />
  <polygon points="35,50 40,35 45,50" />
  <polygon points="45,50 50,35 55,50" />
  <polygon points="55,50 60,35 65,50" />
  <polygon points="65,50 70,35 75,50" />
  <polygon points="75,50 80,35 85,50" />
  <polygon points="20,50 25,65 30,50" />
  <polygon points="30,50 35,65 40,50" />
  <polygon points="40,50 45,65 50,50" />
  <polygon points="50,50 55,65 60,50" />
  <polygon points="60,50 65,65 70,50" />
  <polygon points="70,50 75,65 80,50" />
  <circle cx="20" cy="35" r="2" />
  <circle cx="40" cy="35" r="2" />
  <circle cx="60" cy="35" r="2" />
  <circle cx="80" cy="35" r="2" />
  <circle cx="30" cy="65" r="2" />
  <circle cx="50" cy="65" r="2" />
  <circle cx="70" cy="65" r="2" />
</svg>