<?xml version="1.0" encoding="UTF-8"?>
<svg width="80" height="80" viewBox="0 0 100 100" fill="none" xmlns="http://www.w3.org/2000/svg" class=""><polygon points="10,30 25,5 40,30" stroke="currentColor" stroke-width="2" fill="none"/><polygon points="40,30 55,5 70,30" stroke="currentColor" stroke-width="2" fill="none"/><polygon points="70,30 85,5 100,30" stroke="currentColor" stroke-width="2" fill="none"/><polygon points="0,30 15,55 30,30" stroke="currentColor" stroke-width="2" fill="none"/><polygon points="25,30 40,55 55,30" stroke="currentColor" stroke-width="2" fill="none"/><polygon points="55,30 70,55 85,30" stroke="currentColor" stroke-width="2" fill="none"/><polygon points="10,55 25,80 40,55" stroke="currentColor" stroke-width="2" fill="none"/><polygon points="40,55 55,80 70,55" stroke="currentColor" stroke-width="2" fill="none"/><polygon points="70,55 85,80 100,55" stroke="currentColor" stroke-width="2" fill="none"/><polygon points="0,55 15,80 30,55" stroke="currentColor" stroke-width="2" fill="none"/><polygon points="25,80 40,105 55,80" stroke="currentColor" stroke-width="2" fill="none"/><polygon points="55,55 70,80 85,55" stroke="currentColor" stroke-width="2" fill="none"/></svg>