<?xml version="1.0" encoding="UTF-8"?>
<svg width="80" height="80" viewBox="0 0 100 100" fill="none" xmlns="http://www.w3.org/2000/svg" class=""><path d="M50 10 L75 25 L80 50 L75 75 L60 90 L50 92 L40 90 L25 75 L20 50 L25 25 Z" stroke="currentColor" stroke-width="2" stroke-linejoin="round" fill="none"/><path d="M30 40 L40 35 L45 40 L40 50 L30 48 Z" stroke="currentColor" stroke-width="2" stroke-linejoin="round" fill="none"/><path d="M70 40 L60 35 L55 40 L60 50 L70 48 Z" stroke="currentColor" stroke-width="2" stroke-linejoin="round" fill="none"/><path d="M50 45 L45 60 L50 65 L55 60 Z" stroke="currentColor" stroke-width="2" stroke-linejoin="round" fill="none"/><path d="M35 72 L45 75 L50 73 L55 75 L65 72" stroke="currentColor" stroke-width="2" stroke-linecap="round" fill="none"/><line x1="50" y1="18" x2="50" y2="28" stroke="currentColor" stroke-width="2"/><line x1="40" y1="22" x2="40" y2="28" stroke="currentColor" stroke-width="2"/><line x1="60" y1="22" x2="60" y2="28" stroke="currentColor" stroke-width="2"/></svg>