<?xml version="1.0" encoding="UTF-8"?>
<svg width="80" height="80" viewBox="0 0 100 100" fill="none" xmlns="http://www.w3.org/2000/svg" class=""><polyline points="5,20 20,10 35,20 50,10 65,20 80,10 95,20" stroke="currentColor" stroke-width="2" stroke-linejoin="round" fill="none"/><polyline points="5,40 20,30 35,40 50,30 65,40 80,30 95,40" stroke="currentColor" stroke-width="2" stroke-linejoin="round" fill="none"/><polyline points="5,60 20,50 35,60 50,50 65,60 80,50 95,60" stroke="currentColor" stroke-width="2" stroke-linejoin="round" fill="none"/><polyline points="5,80 20,70 35,80 50,70 65,80 80,70 95,80" stroke="currentColor" stroke-width="2" stroke-linejoin="round" fill="none"/><line x1="20" y1="10" x2="20" y2="30" stroke="currentColor" stroke-width="2"/><line x1="50" y1="10" x2="50" y2="30" stroke="currentColor" stroke-width="2"/><line x1="80" y1="10" x2="80" y2="30" stroke="currentColor" stroke-width="2"/><line x1="35" y1="40" x2="35" y2="60" stroke="currentColor" stroke-width="2"/><line x1="65" y1="40" x2="65" y2="60" stroke="currentColor" stroke-width="2"/><line x1="20" y1="70" x2="20" y2="90" stroke="currentColor" stroke-width="2"/><line x1="50" y1="70" x2="50" y2="90" stroke="currentColor" stroke-width="2"/><line x1="80" y1="70" x2="80" y2="90" stroke="currentColor" stroke-width="2"/></svg>