<svg viewBox="0 0 100 100" fill="none" stroke="currentColor" stroke-width="2" stroke-linecap="round" stroke-linejoin="round" xmlns="http://www.w3.org/2000/svg">
  <path d="M45 85 L45 50 L40 45 L50 25 L60 45 L55 50 L55 85" />
  <path d="M35 45 L50 15 L65 45" />
  <path d="M20 85 L20 60 L18 55 L25 40 L32 55 L30 60 L30 85" />
  <path d="M15 55 L25 35 L35 55" />
  <path d="M70 85 L70 60 L68 55 L75 40 L82 55 L80 60 L80 85" />
  <path d="M65 55 L75 35 L85 55" />
  <line x1="30" y1="65" x2="45" y2="65" />
  <line x1="55" y1="65" x2="70" y2="65" />
  <circle cx="50" cy="35" r="3" />
  <line x1="47" y1="55" x2="53" y2="55" />
  <line x1="47" y1="62" x2="53" y2="62" />
  <line x1="15" y1="85" x2="85" y2="85" />
</svg>